<?xml version="1.0" encoding="utf-8"?>
<!-- Generator: Adobe Illustrator 15.1.0, SVG Export Plug-In . SVG Version: 6.00 Build 0)  -->
<!DOCTYPE svg PUBLIC "-//W3C//DTD SVG 1.0//EN" "http://www.w3.org/TR/2001/REC-SVG-20010904/DTD/svg10.dtd">
<svg version="1.0" id="Layer_1" xmlns="http://www.w3.org/2000/svg" xmlns:xlink="http://www.w3.org/1999/xlink" x="0px" y="0px"
	 width="111.399px" height="136.747px" viewBox="0 0 111.399 136.747" enable-background="new 0 0 111.399 136.747"
	 xml:space="preserve">
<path fill="none" stroke="#000000" stroke-miterlimit="10" d="M73.547,118.755c1.207-1.153,2.453-2.172,3.893-3.058
	c0.72-0.437,1.479-0.841,2.35-1.131c0.855-0.271,1.906-0.501,3.064-0.081c0.563,0.215,1.075,0.611,1.418,1.061
	c0.179,0.223,0.315,0.458,0.434,0.692c0.109,0.265,0.21,0.371,0.31,0.878c0.146,1.252-0.239,2.141-0.641,2.975
	c-0.864,1.626-2.077,2.827-3.324,3.917l0.097-0.093c-0.549,0.626-1.093,1.491-1.259,2.192c-0.143,0.744-0.03,1.005,0.57,1.423
	c0.62,0.382,1.575,0.595,2.522,0.699c0.96,0.107,1.963,0.122,2.971,0.092c2-0.063,4.106-0.303,6.06-0.604
	c0.957-0.186,1.912-0.452,2.679-0.864c0.377-0.204,0.695-0.453,0.857-0.692c0.137-0.26,0.303-0.313,0.767-0.905l0.543-0.135
	c0.731,0.418,0.732,1.484,0.271,2.089c-0.422,0.633-0.969,1.02-1.493,1.327c-1.066,0.597-2.146,0.899-3.225,1.14
	c-2.159,0.383-4.203,0.658-6.371,0.778c-1.075,0.056-2.164,0.066-3.28-0.032c-1.113-0.117-2.271-0.274-3.467-0.942
	c-0.585-0.337-1.206-0.895-1.517-1.676c-0.321-0.776-0.274-1.588-0.114-2.239c0.361-1.327,0.997-2.258,1.802-3.203l0.031-0.037
	l0.065-0.056c1.123-0.969,2.168-2.056,2.782-3.229c0.302-0.557,0.472-1.232,0.415-1.561c0.042,0.114-0.052-0.133-0.101-0.226
	c-0.061-0.117-0.122-0.226-0.188-0.311c-0.131-0.181-0.268-0.28-0.437-0.357c-0.337-0.151-0.942-0.119-1.57,0.08
	c-0.632,0.192-1.284,0.513-1.918,0.88c-1.259,0.745-2.507,1.682-3.619,2.66L73.547,118.755z"/>
<ellipse fill="#FFFFFF" stroke="#000000" stroke-miterlimit="10" cx="51.387" cy="90.892" rx="37.665" ry="38.045"/>
<g>
	<path d="M37.012,75.679h-1.703v-1.506c-0.671,1.154-1.694,1.733-3.068,1.733c-1.362,0-2.514-0.473-3.459-1.418
		c-0.945-0.944-1.417-2.059-1.417-3.344c0-1.3,0.472-2.419,1.417-3.362c0.945-0.939,2.097-1.411,3.459-1.411
		c1.374,0,2.397,0.571,3.068,1.712v-1.007h1.703V75.679z M35.309,71.819v-1.373c-0.12-0.622-0.405-1.158-0.856-1.608
		c-0.635-0.641-1.371-0.962-2.212-0.962c-0.847,0-1.581,0.314-2.203,0.942c-0.621,0.627-0.932,1.402-0.932,2.325
		c0,0.915,0.311,1.685,0.932,2.306c0.622,0.619,1.356,0.93,2.203,0.93c0.841,0,1.577-0.316,2.212-0.95
		C34.903,72.978,35.188,72.441,35.309,71.819z"/>
	<path d="M48.191,75.679h-1.702v-1.506c-0.67,1.154-1.694,1.733-3.068,1.733c-1.361,0-2.514-0.473-3.457-1.418
		c-0.945-0.944-1.419-2.059-1.419-3.344c0-1.3,0.474-2.419,1.419-3.362c0.943-0.939,2.096-1.411,3.457-1.411
		c1.374,0,2.398,0.571,3.068,1.712v-5.948h1.702V75.679z M46.489,71.819v-1.373c-0.119-0.622-0.404-1.158-0.856-1.608
		c-0.632-0.641-1.372-0.962-2.212-0.962c-0.847,0-1.581,0.314-2.201,0.942c-0.621,0.627-0.932,1.402-0.932,2.325
		c0,0.915,0.311,1.685,0.932,2.306c0.62,0.619,1.354,0.93,2.201,0.93c0.84,0,1.58-0.316,2.212-0.95
		C46.085,72.978,46.37,72.441,46.489,71.819z"/>
	<path d="M54.583,66.371c1.373,0,2.527,0.472,3.463,1.411c0.935,0.942,1.402,2.062,1.402,3.362c0,1.286-0.468,2.4-1.402,3.344
		c-0.936,0.945-2.09,1.418-3.463,1.418c-1.36,0-2.516-0.473-3.459-1.418c-0.945-0.944-1.416-2.059-1.416-3.344
		c0-1.3,0.471-2.419,1.416-3.362C52.067,66.843,53.223,66.371,54.583,66.371z M52.38,68.818c-0.62,0.627-0.93,1.402-0.93,2.325
		c0,0.915,0.31,1.685,0.93,2.306c0.621,0.619,1.355,0.93,2.203,0.93c0.841,0,1.572-0.311,2.197-0.93
		c0.625-0.622,0.938-1.392,0.938-2.306c0-0.923-0.313-1.698-0.938-2.325c-0.625-0.628-1.356-0.942-2.197-0.942
		C53.735,67.876,53.001,68.19,52.38,68.818z"/>
	<path d="M60.993,67.077h1.703v0.989c0.674-1.124,1.691-1.685,3.057-1.685c1.369,0,2.523,0.468,3.464,1.407
		c0.944,0.938,1.411,2.056,1.411,3.356c0,1.286-0.467,2.4-1.411,3.344c-0.94,0.945-2.095,1.418-3.464,1.418
		c-1.365,0-2.383-0.569-3.057-1.704v4.471h-1.703V67.077z M62.696,70.418v1.448c0.114,0.61,0.405,1.146,0.875,1.61
		c0.617,0.608,1.343,0.913,2.182,0.913c0.843,0,1.575-0.313,2.201-0.937c0.624-0.625,0.934-1.395,0.934-2.31
		c0-0.923-0.31-1.698-0.934-2.325c-0.626-0.628-1.358-0.942-2.201-0.942c-0.839,0-1.579,0.321-2.219,0.962
		C63.089,69.283,62.811,69.809,62.696,70.418z"/>
	<path d="M73.095,67.077v-3.341h1.694v3.341h1.601v1.467h-1.601v7.135h-1.694v-7.135h-1.598v-1.467H73.095z"/>
	<path d="M41.116,81.424v7.087h-1.7V79.91h1.063c0.463-0.307,1.04-0.461,1.732-0.461c0.803,0,1.463,0.202,1.984,0.602
		c0.508-0.4,1.162-0.602,1.967-0.602s1.48,0.276,2.033,0.828c0.494,0.508,0.756,1.104,0.782,1.788v6.447h-1.706v-6.814
		c-0.073-0.52-0.443-0.782-1.109-0.782c-0.551,0-0.931,0.246-1.139,0.735v6.861h-1.703v-6.814h-0.008
		c-0.07-0.52-0.438-0.782-1.102-0.782C41.747,80.916,41.383,81.087,41.116,81.424z"/>
	<path d="M52.142,83.947v0.029c0,0.915,0.311,1.685,0.93,2.306c0.623,0.62,1.355,0.931,2.205,0.931c0.842,0,1.576-0.317,2.211-0.95
		c0.086-0.087,0.258-0.285,0.508-0.593l1.6,0.564c-0.239,0.402-0.514,0.757-0.826,1.064c-0.957,0.959-2.119,1.441-3.492,1.441
		c-1.363,0-2.518-0.473-3.46-1.418c-0.944-0.944-1.417-2.059-1.417-3.344c0-1.3,0.473-2.419,1.417-3.362
		c0.942-0.939,2.097-1.411,3.46-1.411c1.373,0,2.535,0.477,3.492,1.43c0.82,0.829,1.23,1.933,1.23,3.313H52.142z M52.44,82.46h5.639
		c-0.402-1.167-1.337-1.751-2.803-1.751C53.799,80.708,52.856,81.292,52.44,82.46z"/>
</g>
<path fill="#FFFFFF" stroke="#000000" stroke-miterlimit="10" d="M14.301,94.747c-0.365,0-0.565,0-0.583,0l0.008-2.626
	c35.208,0.113,72.797-2.421,74.71-6.75c0.068-0.156,0.084-1.292-0.005-1.39l-0.371-2.813c1.29,1.408,2.937,4.537,2.662,5.158
	c-0.664,1.503-2.428,5.619-40.281,7.456C33.928,94.583,17.56,94.747,14.301,94.747z"/>
<path fill="#FFFFFF" stroke="#000000" stroke-linecap="round" stroke-linejoin="round" stroke-miterlimit="10" d="M76.235,112.906
	c-39.688-4.617-60.372-22.978-62.461-24.007l0.39-0.58c15.914,7.835,59.317,26.901,68.931,21.091
	c1.159-0.701,1.718-1.715,1.756-3.192l2,0.053c-0.057,2.162-0.973,3.794-2.722,4.851C82.617,112.036,78.845,112.906,76.235,112.906z
	"/>
<path fill="#FFFFFF" stroke="#000000" stroke-miterlimit="10" d="M37.041,106.997c-11.141,0-18.821-0.655-19.739-0.737l-0.74-2.074
	c0.595,0.053,59.36,5.088,72.269-11.425c0.109-0.274,0.191-0.608,0.176-0.73c0.016,0.12,0.313-2.176,0.313-2.176
	c1.05-0.263,1.084,0.798,1.318,1.08c0.715,0.855,0.22,2.208-0.026,2.75l-0.116,0.195C82.058,104.88,55.907,106.997,37.041,106.997z"
	/>
<g>
	<path d="M39.437,33.256c-0.262-0.125-0.516-0.145-0.762-0.058c-0.247,0.087-0.434,0.262-0.559,0.523
		c-0.125,0.262-0.144,0.517-0.057,0.763c1.479,4.19,1.914,7.837,1.309,10.94c-0.556,2.69-1.701,4.381-3.436,5.073
		c-1.807,0.717-3.787,0.208-5.942-1.525c-2.647-2.114-4.977-5.627-6.987-10.539c-1.173-2.872-1.972-5.837-2.397-8.894
		s-0.35-5.953,0.228-8.691c0.438-1.896,1.061-3.106,1.867-3.628c0.606-0.412,1.356-0.419,2.249-0.021
		c0.94,0.42,1.886,1.195,2.839,2.323c0.952,1.129,1.676,2.338,2.171,3.628c0.087,0.247,0.258,0.424,0.514,0.531
		c0.255,0.108,0.516,0.115,0.78,0.021c0.264-0.093,0.449-0.267,0.557-0.523c0.107-0.255,0.112-0.524,0.013-0.806
		c-0.558-1.466-1.396-2.862-2.518-4.188c-1.122-1.327-2.295-2.268-3.521-2.825c-1.56-0.716-2.946-0.662-4.16,0.162
		c-1.284,0.849-2.188,2.495-2.711,4.936c-0.668,2.929-0.774,6.024-0.314,9.286c0.458,3.263,1.306,6.418,2.54,9.466
		c2.17,5.252,4.693,9.033,7.567,11.344c2.802,2.218,5.452,2.827,7.949,1.826c2.427-0.975,3.989-3.169,4.685-6.583
		c0.683-3.448,0.223-7.443-1.381-11.984C39.874,33.568,39.698,33.382,39.437,33.256z"/>
	<path d="M98.31,38.934c-0.186-0.131-0.396-0.183-0.634-0.155c-0.08-0.026-0.165-0.032-0.257-0.019
		c-0.094,0.014-0.205,0.061-0.336,0.141c-0.159,0.053-0.383,0.147-0.672,0.28c-0.502,0.24-1.12,0.546-1.857,0.92
		C93.21,40.768,92.21,41.3,91.553,41.7c-0.343,0.187-1.034,0.592-2.073,1.218c-1.039,0.625-2.1,1.245-3.178,1.857l-3.041,1.718
		c-1.816,0.986-3.345,1.759-4.582,2.319c-0.834,0.367-1.505,0.622-2.048,0.79c-0.067-0.001-0.134-0.015-0.203-0.003
		c-2.27,0.493-4.136,0.594-5.603,0.303c-0.894-0.197-1.566-0.521-2.02-0.971c-0.506-0.513-0.727-1.249-0.666-2.204
		c0.039-1.088,0.254-2.291,0.643-3.61c0.389-1.319,0.795-2.446,1.217-3.383c0.422-0.936,1.014-2.184,1.777-3.744
		s1.299-2.68,1.605-3.361l3.127-6.945c1.445,0.61,2.619,1.139,3.523,1.586c0.271,0.123,0.539,0.142,0.805,0.055
		c0.263-0.086,0.453-0.257,0.568-0.512c0.114-0.255,0.129-0.515,0.043-0.778c-0.087-0.264-0.248-0.45-0.486-0.557
		c-0.938-0.462-2.147-1.007-3.625-1.632l4.207-9.344c0.106-0.238,0.108-0.493,0.006-0.765c-0.104-0.271-0.273-0.461-0.512-0.568
		c-0.238-0.107-0.494-0.109-0.765-0.007c-0.272,0.104-0.462,0.274-0.568,0.512l-4.229,9.396c-1.377-0.579-2.484-1.077-3.32-1.494
		c-0.271-0.123-0.539-0.141-0.804-0.055c-0.264,0.087-0.453,0.256-0.568,0.512c-0.114,0.255-0.13,0.516-0.044,0.779
		c0.087,0.265,0.249,0.45,0.486,0.557c0.871,0.433,2.011,0.946,3.422,1.541l-3.104,6.894c-0.261,0.579-0.781,1.666-1.56,3.259
		c-0.779,1.594-1.392,2.885-1.835,3.872c-0.445,0.988-0.889,2.221-1.328,3.701c-0.297,0.991-0.496,1.915-0.617,2.782
		c-0.145-0.057-0.299-0.089-0.473-0.072c-0.285,0.029-0.512,0.147-0.682,0.356c-0.553,0.659-1.22,1.157-2.002,1.493
		c-0.787,0.374-1.467,0.42-2.039,0.14c-1.973-0.941-2.964-3.475-2.976-7.603c0.019-0.973,0.087-2.054,0.202-3.243l0.198-0.881
		c0.143-0.698,0.349-1.859,0.62-3.484c0.079-0.442,0.158-1.054,0.234-1.834l0.07-0.725c0.006-0.074-0.006-0.15-0.035-0.228
		l-0.084-0.29c-0.086-0.271-0.256-0.456-0.509-0.556c-0.048-3.38-0.945-5.718-2.694-7.013c-1.188-0.903-2.431-1.249-3.727-1.037
		c-1.146,0.227-2.241,0.871-3.281,1.932c-1.793,1.852-3.227,4.638-4.3,8.36c-1.069,3.685-1.477,7.096-1.218,10.234
		c0.314,3.707,1.525,6.112,3.631,7.217c1.645,0.834,3.246,0.765,4.803-0.209c1.16-0.75,2.256-1.994,3.288-3.732
		c0.321-0.606,0.628-1.251,0.919-1.936c0.449,3.495,1.783,5.781,4.004,6.859c1.108,0.558,2.352,0.509,3.729-0.145
		c0.842-0.367,1.588-0.88,2.244-1.527c0.113,1.148,0.521,2.098,1.256,2.826c0.717,0.773,1.731,1.291,3.046,1.556
		c1.575,0.308,3.466,0.259,5.638-0.106c0.23-0.019,0.482-0.058,0.761-0.125c0.011-0.002,0.021-0.003,0.033-0.005
		c0.007-0.002,0.012-0.007,0.019-0.009c0.226-0.056,0.447-0.109,0.703-0.195c-0.078,0.186-0.145,0.357-0.195,0.516
		c-0.31,1.427-0.236,2.971,0.221,4.632c0.27,0.949,0.649,1.825,1.143,2.628c0.492,0.802,1.148,1.532,1.971,2.188
		c0.821,0.656,1.734,1.087,2.738,1.293c2.108,4.397,5.313,6.441,9.614,6.129c0.29-0.028,0.526-0.148,0.711-0.36
		c0.183-0.212,0.261-0.45,0.233-0.714c-0.027-0.264-0.147-0.487-0.359-0.671c-0.213-0.183-0.438-0.262-0.674-0.234
		c-3.115,0.174-5.523-1.187-7.228-4.083c2.901-0.384,5.358-2.759,7.369-7.125c0.705-1.402,1.423-3.241,2.15-5.515
		c0.91-2.671,1.444-4.165,1.601-4.483c0.13-0.396,0.378-0.978,0.744-1.746c0.365-0.768,0.6-1.31,0.705-1.627
		c0.287-0.662,0.455-1.176,0.507-1.547C99.015,39.894,98.84,39.3,98.31,38.934z M56.245,36.124c-0.72,2.781-1.645,5.148-2.771,7.102
		c-0.854,1.456-1.723,2.477-2.604,3.067c-0.917,0.549-1.838,0.572-2.764,0.069c-1.467-0.742-2.316-2.606-2.552-5.593
		c-0.28-2.915,0.083-6.068,1.087-9.459c1.004-3.391,2.279-5.911,3.828-7.562c0.748-0.752,1.484-1.187,2.209-1.305
		c0.723-0.117,1.454,0.085,2.191,0.607c1.258,0.947,1.871,2.938,1.84,5.974c0,0.375,0.161,0.654,0.48,0.834
		C56.72,32.4,56.403,34.489,56.245,36.124z M79.586,56.015c-0.402-1.344-0.475-2.545-0.216-3.603
		c0.181-0.767,0.481-1.23,0.904-1.391c0.025,0.026,0.052,0.079,0.08,0.158c0.213,0.421,0.413,1.067,0.604,1.938
		c0.135,0.606,0.27,1.398,0.408,2.374c0.136,0.977,0.218,1.53,0.245,1.662c0.242,1.081,0.512,2.083,0.808,3.005
		C81.067,59.347,80.124,57.966,79.586,56.015z M96.501,41.477l-0.744,1.627c-0.365,0.793-0.627,1.376-0.783,1.746l-1.561,4.601
		c-0.756,2.195-1.446,4.194-2.072,5.571c-1.855,3.89-3.943,5.225-6.266,6.225h-0.238c-0.481-2-0.896-2.729-1.248-4.286
		c-0.027-0.079-0.096-0.7-0.205-1.65c-0.164-1.002-0.313-1.887-0.448-2.546c-0.217-1.054-0.472-1.885-0.765-2.438
		c-0.134-0.29-0.293-0.541-0.479-0.724l2.488-1.325l3.08-1.761l3.238-1.84c1.025-0.612,1.696-1.025,2.013-1.238
		c0.685-0.373,1.671-0.893,2.962-1.56l1.105-0.561L96.501,41.477z"/>
</g>
<path fill="#FFFFFF" stroke="#000000" stroke-linecap="round" stroke-linejoin="round" stroke-miterlimit="10" d="M87.998,100.747
	c-52.722-3.335-68.314-12.02-72.11-18.718c-1.866-3.292,0.465-5.163,0.518-5.266l0,0l0,0l0,0c-0.027,0.06,0.463,2.031,1.735,4.167
	c2.98,5.004,16.04,13.908,70.016,17.322L87.998,100.747z"/>
<path fill="#FFFFFF" stroke="#000000" stroke-linecap="round" stroke-linejoin="round" stroke-miterlimit="10" d="M22.461,112.528
	c-1.533,0-2.512-0.033-2.789-0.044l-0.109-0.01c-1.563-0.234-2.543-0.836-2.914-1.79c-0.519-1.337,0.479-2.624,0.595-2.766
	l1.329,1.66l-0.552-1.03l0.619,0.832c-0.163,0.208-0.192,0.41-0.125,0.582c0.048,0.12,0.379,0.38,1.29,0.525
	c2.076,0.066,58.993,0.011,67.046-32.692l0.831,2.896C80.097,111.499,34.507,112.528,22.461,112.528z"/>
<path fill="#FFFFFF" stroke="#000000" stroke-linecap="round" stroke-linejoin="round" stroke-miterlimit="10" d="M72.699,122.74
	c-48.148-14.464-57.753-22.429-59.419-25.889c-0.447-0.93-0.296-1.527-0.21-1.741l1.856,0.745c0.049-0.123,0.048-0.192,0.048-0.193
	c0.009,0.311,2.623,7.193,60.412,24.553L72.699,122.74z"/>
<g>
	<g>
		<path d="M13.425,78.988c0.645,0,0.645-1,0-1S12.78,78.988,13.425,78.988L13.425,78.988z"/>
	</g>
</g>
<g>
	<g>
		<path d="M14.528,75.524c0.645,0,0.645-1,0-1S13.883,75.524,14.528,75.524L14.528,75.524z"/>
	</g>
</g>
<g>
	<g>
		<path d="M16.417,71.903c0.645,0,0.645-1,0-1S15.772,71.903,16.417,71.903L16.417,71.903z"/>
	</g>
</g>
<g>
	<g>
		<path d="M18.149,69.069c0.645,0,0.645-1,0-1S17.504,69.069,18.149,69.069L18.149,69.069z"/>
	</g>
</g>
<g>
	<g>
		<path d="M19.881,66.55c0.645,0,0.645-1,0-1S19.236,66.55,19.881,66.55L19.881,66.55z"/>
	</g>
</g>
<g>
	<g>
		<path d="M21.771,64.188c0.645,0,0.645-1,0-1S21.125,64.188,21.771,64.188L21.771,64.188z"/>
	</g>
</g>
<g>
	<g>
		<path d="M23.66,62.456c0.645,0,0.645-1,0-1S23.015,62.456,23.66,62.456L23.66,62.456z"/>
	</g>
</g>
<g>
	<g>
		<path d="M25.707,60.409c0.645,0,0.645-1,0-1S25.062,60.409,25.707,60.409L25.707,60.409z"/>
	</g>
</g>
<g>
	<g>
		<path d="M27.753,58.834c0.645,0,0.645-1,0-1S27.108,58.834,27.753,58.834L27.753,58.834z"/>
	</g>
</g>
<g>
	<g>
		<path d="M30.115,57.417c0.645,0,0.645-1,0-1S29.47,57.417,30.115,57.417L30.115,57.417z"/>
	</g>
</g>
<g>
	<g>
		<path d="M11.381,89.54c0.645,0,0.645-1,0-1S10.736,89.54,11.381,89.54L11.381,89.54z"/>
	</g>
</g>
<g>
	<g>
		<path d="M10.751,93.161c0.645,0,0.645-1,0-1S10.106,93.161,10.751,93.161L10.751,93.161z"/>
	</g>
</g>
<g>
	<g>
		<path d="M11.066,97.254c0.645,0,0.645-1,0-1S10.421,97.254,11.066,97.254L11.066,97.254z"/>
	</g>
</g>
<g>
	<g>
		<path d="M12.011,101.191c0.645,0,0.645-1,0-1S11.366,101.191,12.011,101.191L12.011,101.191z"/>
	</g>
</g>
<g>
	<g>
		<path d="M12.798,104.025c0.645,0,0.645-1,0-1S12.153,104.025,12.798,104.025L12.798,104.025z"/>
	</g>
</g>
<g>
	<g>
		<path d="M13.586,107.332c0.645,0,0.645-1,0-1S12.941,107.332,13.586,107.332L13.586,107.332z"/>
	</g>
</g>
<g>
	<g>
		<path d="M15.318,108.851c-0.053,0-0.105,0-0.158,0c-0.645,0-0.645,1,0,1c0.053,0,0.105,0,0.158,0
			C15.963,109.851,15.963,108.851,15.318,108.851L15.318,108.851z"/>
	</g>
</g>
<g>
	<g>
		<path d="M17.994,115.047c0.645,0,0.645-1,0-1S17.349,115.047,17.994,115.047L17.994,115.047z"/>
	</g>
</g>
<g>
	<g>
		<path d="M20.514,117.881c0.645,0,0.645-1,0-1S19.869,117.881,20.514,117.881L20.514,117.881z"/>
	</g>
</g>
<g>
	<g>
		<path d="M9.02,86.548c0.645,0,0.645-1,0-1S8.375,86.548,9.02,86.548L9.02,86.548z"/>
	</g>
</g>
<g>
	<g>
		<path d="M8.862,83.556c0.645,0,0.645-1,0-1S8.217,83.556,8.862,83.556L8.862,83.556z"/>
	</g>
</g>
<g>
	<g>
		<path d="M10.751,81.982c0.645,0,0.645-1,0-1S10.106,81.982,10.751,81.982L10.751,81.982z"/>
	</g>
</g>
<g>
	<g>
		<path d="M12.956,81.352c0.645,0,0.645-1,0-1S12.311,81.352,12.956,81.352L12.956,81.352z"/>
	</g>
</g>
<g>
	<g>
		<path d="M85.068,113.787c0.645,0,0.645-1,0-1S84.424,113.787,85.068,113.787L85.068,113.787z"/>
	</g>
</g>
<g>
	<g>
		<path d="M85.855,111.268c0.645,0,0.645-1,0-1S85.211,111.268,85.855,111.268L85.855,111.268z"/>
	</g>
</g>
<g>
	<g>
		<path d="M87.588,109.378c0.645,0,0.645-1,0-1S86.943,109.378,87.588,109.378L87.588,109.378z"/>
	</g>
</g>
<g>
	<g>
		<path d="M88.06,107.332c0.645,0,0.645-1,0-1S87.415,107.332,88.06,107.332L88.06,107.332z"/>
	</g>
</g>
<g>
	<g>
		<path d="M89.319,104.34c0.645,0,0.645-1,0-1S88.675,104.34,89.319,104.34L89.319,104.34z"/>
	</g>
</g>
<g>
	<g>
		<path d="M89.635,101.661c0.645,0,0.645-1,0-1S88.99,101.661,89.635,101.661L89.635,101.661z"/>
	</g>
</g>
<g>
	<g>
		<path d="M89.949,99.142c0.645,0,0.645-1,0-1S89.305,99.142,89.949,99.142L89.949,99.142z"/>
	</g>
</g>
<g>
	<g>
		<path d="M90.422,96.938c0.645,0,0.645-1,0-1S89.777,96.938,90.422,96.938L90.422,96.938z"/>
	</g>
</g>
<g>
	<g>
		<path d="M91.523,94.576c0.645,0,0.645-1,0-1S90.879,94.576,91.523,94.576L91.523,94.576z"/>
	</g>
</g>
<g>
	<g>
		<path d="M91.996,91.742c0.645,0,0.645-1,0-1S91.352,91.742,91.996,91.742L91.996,91.742z"/>
	</g>
</g>
<g>
	<g>
		<path d="M90.422,89.538c0.645,0,0.645-1,0-1S89.777,89.538,90.422,89.538L90.422,89.538z"/>
	</g>
</g>
<g>
	<g>
		<path d="M91.366,87.648c0.645,0,0.645-1,0-1S90.722,87.648,91.366,87.648L91.366,87.648z"/>
	</g>
</g>
<g>
	<g>
		<path d="M91.523,85.444c0.645,0,0.645-1,0-1S90.879,85.444,91.523,85.444L91.523,85.444z"/>
	</g>
</g>
<g>
	<g>
		<path d="M90.736,82.767c0.645,0,0.645-1,0-1S90.092,82.767,90.736,82.767L90.736,82.767z"/>
	</g>
</g>
<g>
	<g>
		<path d="M89.319,80.406c0.645,0,0.645-1,0-1S88.675,80.406,89.319,80.406L89.319,80.406z"/>
	</g>
</g>
<g>
	<g>
		<path d="M88.218,77.099c0.645,0,0.645-1,0-1S87.573,77.099,88.218,77.099L88.218,77.099z"/>
	</g>
</g>
<g>
	<g>
		<path d="M86.8,74.422c0.645,0,0.645-1,0-1S86.155,74.422,86.8,74.422L86.8,74.422z"/>
	</g>
</g>
<g>
	<g>
		<path d="M85.383,71.116c0.645,0,0.645-1,0-1S84.738,71.116,85.383,71.116L85.383,71.116z"/>
	</g>
</g>
<g>
	<g>
		<path d="M22.404,120.715c0.645,0,0.645-1,0-1S21.759,120.715,22.404,120.715L22.404,120.715z"/>
	</g>
</g>
<g>
	<g>
		<path d="M24.293,122.762c0.645,0,0.645-1,0-1S23.648,122.762,24.293,122.762L24.293,122.762z"/>
	</g>
</g>
<g>
	<g>
		<path d="M26.655,124.336c0.645,0,0.645-1,0-1S26.01,124.336,26.655,124.336L26.655,124.336z"/>
	</g>
</g>
<g>
	<g>
		<path d="M29.017,125.911c0.645,0,0.645-1,0-1S28.372,125.911,29.017,125.911L29.017,125.911z"/>
	</g>
</g>
<g>
	<g>
		<path d="M31.851,127.958c0.645,0,0.645-1,0-1C31.206,126.958,31.206,127.958,31.851,127.958L31.851,127.958z"/>
	</g>
</g>
<g>
	<g>
		<path d="M34.843,129.375c0.645,0,0.645-1,0-1S34.198,129.375,34.843,129.375L34.843,129.375z"/>
	</g>
</g>
<g>
	<g>
		<path d="M37.52,130.162c0.645,0,0.645-1,0-1S36.875,130.162,37.52,130.162L37.52,130.162z"/>
	</g>
</g>
<g>
	<g>
		<path d="M40.511,130.949c0.645,0,0.645-1,0-1S39.866,130.949,40.511,130.949L40.511,130.949z"/>
	</g>
</g>
<g>
	<g>
		<path d="M43.66,131.894c0.645,0,0.645-1,0-1S43.016,131.894,43.66,131.894L43.66,131.894z"/>
	</g>
</g>
<g>
	<g>
		<path d="M46.651,132.523c0.645,0,0.645-1,0-1S46.007,132.523,46.651,132.523L46.651,132.523z"/>
	</g>
</g>
<g>
	<g>
		<path d="M49.328,132.366c0.645,0,0.645-1,0-1S48.684,132.366,49.328,132.366L49.328,132.366z"/>
	</g>
</g>
<g>
	<g>
		<path d="M52.162,132.052c0.645,0,0.645-1,0-1S51.518,132.052,52.162,132.052L52.162,132.052z"/>
	</g>
</g>
<g>
	<g>
		<path d="M55.469,132.052c0.645,0,0.645-1,0-1S54.824,132.052,55.469,132.052L55.469,132.052z"/>
	</g>
</g>
<g>
	<g>
		<path d="M58.46,131.736c0.645,0,0.645-1,0-1S57.815,131.736,58.46,131.736L58.46,131.736z"/>
	</g>
</g>
<g>
	<g>
		<path d="M61.137,130.792c0.645,0,0.645-1,0-1S60.492,130.792,61.137,130.792L61.137,130.792z"/>
	</g>
</g>
<g>
	<g>
		<path d="M64.286,129.689c0.645,0,0.645-1,0-1S63.642,129.689,64.286,129.689L64.286,129.689z"/>
	</g>
</g>
<g>
	<g>
		<path d="M66.963,128.902c0.645,0,0.645-1,0-1S66.318,128.902,66.963,128.902L66.963,128.902z"/>
	</g>
</g>
<g>
	<g>
		<path d="M69.639,127.643c0.645,0,0.645-1,0-1S68.994,127.643,69.639,127.643L69.639,127.643z"/>
	</g>
</g>
<g>
	<g>
		<path d="M72.315,126.068c0.645,0,0.645-1,0-1S71.671,126.068,72.315,126.068L72.315,126.068z"/>
	</g>
</g>
<g>
	<g>
		<path d="M74.835,124.179c0.645,0,0.645-1,0-1S74.19,124.179,74.835,124.179L74.835,124.179z"/>
	</g>
</g>
<g>
	<g>
		<path d="M77.354,122.289c0.645,0,0.645-1,0-1S76.71,122.289,77.354,122.289L77.354,122.289z"/>
	</g>
</g>
<g>
	<g>
		<path d="M80.188,119.613c0.645,0,0.645-1,0-1S79.544,119.613,80.188,119.613L80.188,119.613z"/>
	</g>
</g>
<g>
	<path d="M69.916,82.928c-3.015-5.44-7.674,2.12,0.581,5.289c0,0,3.943-1.497,4.352-5.236
		C75.222,79.566,70.695,80.332,69.916,82.928"/>
</g>
<g>
	<g>
		<path d="M32.778,55.945c0.645,0,0.645-1,0-1S32.134,55.945,32.778,55.945L32.778,55.945z"/>
	</g>
</g>
<g>
	<g>
		<path d="M35.257,54.883c0.645,0,0.645-1,0-1S34.612,54.883,35.257,54.883L35.257,54.883z"/>
	</g>
</g>
<g>
	<g>
		<path d="M37.499,53.938c0.645,0,0.645-1,0-1S36.854,53.938,37.499,53.938L37.499,53.938z"/>
	</g>
</g>
<g>
	<g>
		<path d="M39.978,53.112c0.645,0,0.645-1,0-1S39.333,53.112,39.978,53.112L39.978,53.112z"/>
	</g>
</g>
<g>
	<g>
		<path d="M42.338,52.522c0.645,0,0.645-1,0-1S41.693,52.522,42.338,52.522L42.338,52.522z"/>
	</g>
</g>
<g>
	<g>
		<path d="M45.053,52.168c0.645,0,0.645-1,0-1S44.408,52.168,45.053,52.168L45.053,52.168z"/>
	</g>
</g>
<g>
	<g>
		<path d="M47.649,51.814c0.645,0,0.645-1,0-1S47.005,51.814,47.649,51.814L47.649,51.814z"/>
	</g>
</g>
<g>
	<g>
		<path d="M50.6,51.814c0.645,0,0.645-1,0-1S49.955,51.814,50.6,51.814L50.6,51.814z"/>
	</g>
</g>
<g>
	<g>
		<path d="M52.96,51.696c0.645,0,0.645-1,0-1S52.315,51.696,52.96,51.696L52.96,51.696z"/>
	</g>
</g>
<g>
	<g>
		<path d="M55.202,52.05c0.645,0,0.645-1,0-1S54.558,52.05,55.202,52.05L55.202,52.05z"/>
	</g>
</g>
<g>
	<g>
		<path d="M57.681,52.286c0.645,0,0.645-1,0-1S57.036,52.286,57.681,52.286L57.681,52.286z"/>
	</g>
</g>
<g>
	<g>
		<path d="M59.569,52.64c0.645,0,0.645-1,0-1S58.925,52.64,59.569,52.64L59.569,52.64z"/>
	</g>
</g>
<g>
	<g>
		<path d="M61.575,53.112c0.645,0,0.645-1,0-1S60.931,53.112,61.575,53.112L61.575,53.112z"/>
	</g>
</g>
<g>
	<g>
		<path d="M64.054,53.702c0.645,0,0.645-1,0-1S63.409,53.702,64.054,53.702L64.054,53.702z"/>
	</g>
</g>
<g>
	<g>
		<path d="M66.297,54.883c0.645,0,0.645-1,0-1S65.652,54.883,66.297,54.883L66.297,54.883z"/>
	</g>
</g>
<g>
	<g>
		<path d="M68.539,55.827c0.645,0,0.645-1,0-1S67.895,55.827,68.539,55.827L68.539,55.827z"/>
	</g>
</g>
<g>
	<g>
		<path d="M71.253,57.125c0.645,0,0.645-1,0-1S70.608,57.125,71.253,57.125L71.253,57.125z"/>
	</g>
</g>
<g>
	<g>
		<path d="M73.023,58.305c0.645,0,0.645-1,0-1S72.379,58.305,73.023,58.305L73.023,58.305z"/>
	</g>
</g>
<g>
	<g>
		<path d="M74.794,59.722c0.645,0,0.645-1,0-1S74.149,59.722,74.794,59.722L74.794,59.722z"/>
	</g>
</g>
<g>
	<g>
		<path d="M76.683,61.492c0.645,0,0.645-1,0-1S76.038,61.492,76.683,61.492L76.683,61.492z"/>
	</g>
</g>
<g>
	<g>
		<path d="M79.043,63.144c0.645,0,0.645-1,0-1S78.398,63.144,79.043,63.144L79.043,63.144z"/>
	</g>
</g>
<g>
	<g>
		<path d="M80.813,65.623c0.645,0,0.645-1,0-1S80.169,65.623,80.813,65.623L80.813,65.623z"/>
	</g>
</g>
<g>
	<g>
		<path d="M82.466,67.039c0.645,0,0.645-1,0-1S81.821,67.039,82.466,67.039L82.466,67.039z"/>
	</g>
</g>
<g>
	<g>
		<path d="M83.882,68.809c0.645,0,0.645-1,0-1S83.237,68.809,83.882,68.809L83.882,68.809z"/>
	</g>
</g>
<path fill="#FFFFFF" stroke="#000000" stroke-miterlimit="10" d="M78.63,118.149l-0.12-0.016
	c-50.628-6.619-56.34-51.804-56.392-52.26c-0.063-0.548,0.332-1.043,0.88-1.106c0.544-0.063,1.044,0.331,1.107,0.88
	c0.013,0.11,1.353,11.174,8.748,22.87c6.79,10.737,20.239,24.234,45.779,27.615c0.556-0.099,2.728-0.597,2.672-3.435
	c-0.011-0.551,0.428-0.951,0.98-0.951c0.007,0,0.014,0,0.02,0c0.544,0,0.989,0.367,1,0.912c0.078,3.977-2.944,5.332-4.554,5.512
	L78.63,118.149z"/>
<path fill="#FFFFFF" stroke="#000000" stroke-linecap="round" stroke-linejoin="round" stroke-miterlimit="10" d="M86.682,104.767
	C10.71,93.104,10.454,86.805,10.37,84.734c-0.101-2.489,3.694-3.464,4.127-3.567l-0.775,2.813c-1.217,0.293-1.375,0.162-1.354,0.673
	c0.047,1.123,3.867,7.274,74.616,18.136L86.682,104.767z"/>
</svg>
