<?xml version="1.0" encoding="utf-8"?>
<!-- Generator: Adobe Illustrator 15.1.0, SVG Export Plug-In . SVG Version: 6.00 Build 0)  -->
<!DOCTYPE svg PUBLIC "-//W3C//DTD SVG 1.0//EN" "http://www.w3.org/TR/2001/REC-SVG-20010904/DTD/svg10.dtd">
<svg version="1.0" id="Layer_1" xmlns="http://www.w3.org/2000/svg" xmlns:xlink="http://www.w3.org/1999/xlink" x="0px" y="0px"
	 width="195.75px" height="110px" viewBox="0 0 195.75 110" enable-background="new 0 0 195.75 110" xml:space="preserve">
<path fill="#FFFFFF" d="M183.641,71.725c0,0-3.386-3.285-6.93-7.495c14.575-19.669,2.105-29.653,2.105-29.653
	c-17.466-8.478-32.088,13.556-36.208,20.815l-42.963,1.74c0,0-22.635,1.203-41.906-3.811c-8.843-2.301-13.613-7.016-20.519-10.954
	c-8.996-5.133-9.667-8.593-20.02-1.037c0,0-9.861,8.591,4.817,24.145c0.001,0.004,1.936,11.075-3.852,19.274
	c0,0-7.111,8.686,4.163,15.439c0,0,14.822,10.553,31.537-11.078c0,0,21.227-13.972,106.136,0c0,0,6.27,15.898,20.743,10.111
	C180.746,99.223,197.148,91.021,183.641,71.725z"/>
<g>
	<path d="M45.076,49.138c-2.117-1.798-4.045-3.721-6.151-5.459c-2.109-1.72-4.38-3.258-6.835-4.355
		c-2.441-1.09-5.125-1.717-7.706-1.32c-2.593,0.364-4.887,1.849-6.686,3.785l-0.007,0.008l-0.045,0.043
		c-1.1,1.048-1.987,2.55-2.489,4.08c-0.514,1.551-0.671,3.216-0.517,4.86c0.314,3.309,1.798,6.455,3.682,9.261
		c1.916,2.805,4.181,5.396,6.66,7.772c1.253,1.279,2.278,2.698,3.145,4.229c0.827,1.533,1.474,3.242,1.442,4.988
		c-0.198-1.729-0.964-3.299-1.891-4.72c-0.927-1.419-2.046-2.752-3.285-3.867c-2.57-2.337-5.032-4.85-7.016-7.761
		c-1.976-2.885-3.593-6.171-3.977-9.781c-0.385-3.588,0.655-7.4,3.359-10.08l-0.053,0.051c1.903-2.133,4.56-3.774,7.486-4.168
		c2.924-0.42,5.839,0.316,8.405,1.488c2.586,1.184,4.917,2.799,7.069,4.586c2.144,1.792,4.18,3.753,5.624,6.182L45.076,49.138z"/>
</g>
<g>
	<path d="M22.512,65.391c0.364,1.7,0.529,3.392,0.548,5.108c0.022,1.711-0.074,3.434-0.372,5.134
		c-0.291,1.698-0.702,3.391-1.347,5.009c-0.644,1.616-1.473,3.167-2.492,4.589l-0.009,0.013l-0.027,0.035
		c-0.825,1.063-1.532,2.421-1.885,3.785c-0.362,1.378-0.395,2.835-0.003,4.205c0.375,1.376,1.158,2.646,2.17,3.714
		c1.007,1.078,2.21,1.989,3.492,2.777l-0.027-0.018l0.061,0.039c2.453,1.561,5.486,2.385,8.448,2.479
		c2.989,0.098,5.981-0.571,8.722-1.796c2.75-1.22,5.263-2.958,7.53-4.961c2.271-2.006,4.309-4.277,6.173-6.682l0.056-0.073
		l0.058-0.032c2.062-1.176,4.184-1.854,6.353-2.509c2.166-0.628,4.361-1.126,6.568-1.545c4.417-0.831,8.88-1.348,13.35-1.688
		c8.943-0.664,17.916-0.626,26.858-0.23c8.945,0.404,17.865,1.192,26.76,2.183c8.893,1.002,17.756,2.257,26.588,3.688l0.293,0.045
		l0.123,0.265v0.002c1,1.888,2.019,3.701,3.36,5.301c1.354,1.599,2.939,2.989,4.747,3.963c1.805,0.972,3.809,1.521,5.847,1.522
		c2.038,0.014,4.07-0.475,5.988-1.257l-0.063,0.028c2.122-1.196,4.065-3.018,5.446-5.076c1.395-2.079,2.189-4.521,2.27-7.021
		c0.094-2.503-0.479-5.026-1.425-7.4c-0.944-2.385-2.271-4.625-3.727-6.777l0.105,0.123c-1.602-1.604-3.123-3.242-4.615-4.927
		c-1.495-1.678-2.926-3.415-4.262-5.23c-1.336-1.812-2.624-3.671-3.702-5.668c-0.534-1-1.019-1.79-1.402-2.868
		c-0.381-1.074-0.66-2.143-0.616-3.143h0.463c0.187,2,1.275,3.897,2.422,5.75c1.171,1.861,2.49,3.516,3.894,5.226
		c1.411,1.705,2.875,3.307,4.368,4.945c1.499,1.627,3.051,3.201,4.633,4.724l0.054,0.037l0.052,0.064
		c1.576,2.191,2.942,4.558,3.957,7.104c1.009,2.54,1.646,5.298,1.54,8.107c-0.089,2.804-1,5.593-2.565,7.915
		c-0.777,1.165-1.699,2.226-2.732,3.154c-1.045,0.934-2.125,1.743-3.422,2.432l-0.026,0.014l-0.037,0.015
		c-2.084,0.813-4.336,1.324-6.624,1.272c-2.282-0.042-4.561-0.682-6.521-1.82c-1.967-1.137-3.652-2.69-5.034-4.424
		c-1.384-1.744-2.371-3.637-3.371-5.716v-0.004l0.402,0.31c-17.621-2.913-35.366-5.224-53.214-5.996
		c-8.917-0.382-17.854-0.405-26.747,0.269c-4.443,0.344-8.873,0.865-13.243,1.694c-2.184,0.417-4.351,0.913-6.478,1.534
		c-2.102,0.629-4.268,1.354-6.095,2.399l0.114-0.105c-1.889,2.444-3.96,4.763-6.285,6.823c-2.321,2.056-4.909,3.856-7.77,5.132
		c-2.851,1.278-5.995,1.99-9.146,1.893c-3.151-0.113-6.264-0.919-8.999-2.65l0.033,0.021c-1.355-0.794-2.651-1.727-3.773-2.876
		c-1.112-1.148-2.066-2.522-2.585-4.102c-0.532-1.573-0.577-3.304-0.227-4.916c0.369-1.626,1.002-3.112,2.033-4.504l-0.036,0.047
		c0.91-1.318,1.647-2.757,2.217-4.263c0.569-1.506,1.027-3.065,1.321-4.667c0.286-1.6,0.489-3.225,0.568-4.864
		c0.065-1.632,0.076-3.3-0.064-4.914L22.512,65.391z"/>
</g>
<g>
	<path d="M42.049,45.021c0.583,0.733,1.454,1.417,2.302,2.005c0.867,0.593,1.782,1.128,2.729,1.604
		c1.899,0.946,3.879,1.737,5.885,2.469c4.024,1.439,8.212,2.452,12.435,3.246c8.46,1.567,17.083,2.26,25.702,2.558
		c8.626,0.287,17.268,0.143,25.896-0.256c8.631-0.401,17.274-1.072,25.876-1.921l-0.376,0.285v-0.003c2-3.517,3.754-6.807,6.1-9.918
		c2.367-3.085,5.042-5.965,8.179-8.334c3.12-2.358,6.77-4.188,10.736-4.749c3.961-0.589,8.049,0.24,11.593,1.976l0.081,0.04
		l0.042,0.039c2.194,1.978,3.61,4.484,4.44,7.201c0.815,2.717,0.909,5.609,0.462,8.37c-0.441,2.771-1.395,5.418-2.614,7.902
		c-1.241,2.478-2.752,4.797-4.406,6.993l-0.803-0.596c1.583-2.187,3.015-4.484,4.17-6.905c1.16-2.413,2.057-4.958,2.455-7.582
		c0.405-2.615,0.294-5.309-0.477-7.817c-0.754-2.482-2.18-4.872-4.055-6.536l0.125,0.079c-3.356-1.66-7.149-2.439-10.845-1.91
		c-3.699,0.504-7.175,2.206-10.191,4.465c-3.03,2.266-5.665,5.06-8.001,8.069c-2.335,3.007-4.426,6.253-6.136,9.639l-0.002,0.003
		l-0.121,0.255l-0.28,0.029c-8.612,0.89-17.245,1.602-25.897,2.045c-8.65,0.44-17.32,0.625-25.989,0.376
		c-8.665-0.26-17.344-0.914-25.911-2.46c-4.278-0.785-8.532-1.791-12.665-3.246c-2.067-0.72-4.089-1.602-6.003-2.7
		c-0.957-0.548-1.898-1.131-2.79-1.797c-0.892-0.684-1.74-1.362-2.472-2.353L42.049,45.021z"/>
</g>
<g>
	<path d="M53.155,3.357c3.422,0,7.146,1.399,11.173,4.2c4.024,2.8,7.497,6.223,10.414,10.269c3.072,4.317,4.862,8.44,5.369,12.369
		c0.581,4.589-0.74,8.246-3.969,10.968c-0.506,0.389-1.013,0.76-1.516,1.108c1.204,0.272,2.313,0.43,3.324,0.468
		c2.606,0.039,4.531-0.932,5.774-2.917c0.157-0.233,0.371-0.378,0.644-0.438c0.271-0.057,0.534-0.009,0.789,0.146
		c0.251,0.155,0.406,0.369,0.467,0.641c0.058,0.273,0.009,0.545-0.146,0.818c-1.675,2.644-4.203,3.927-7.585,3.851
		c-1.714-0.04-3.772-0.448-6.184-1.225c-3.697,1.282-7.722,1.321-12.078,0.114c-1.478-0.388-2.587-0.758-3.327-1.108
		c-0.194-0.078-0.37-0.174-0.524-0.291c0,0.233-0.02,0.468-0.058,0.702c-0.04,0.31-0.175,0.553-0.409,0.728
		c-0.234,0.176-0.497,0.242-0.788,0.204c-0.292-0.039-0.526-0.175-0.7-0.408c-0.175-0.233-0.244-0.486-0.206-0.758
		c0.234-1.83,0.36-3.705,0.379-5.631c0.02-1.925-0.038-4.289-0.173-7.088c-0.138-2.801-0.206-4.726-0.206-5.777
		c-0.117-7.545-0.291-13.827-0.524-18.845c-0.274,0-0.506-0.106-0.701-0.32c-0.194-0.213-0.292-0.457-0.292-0.73
		c0-0.271,0.106-0.515,0.32-0.729C52.639,3.464,52.882,3.357,53.155,3.357z M71.65,41.395c1.166-0.466,2.197-1.086,3.091-1.865
		c2.685-2.216,3.773-5.251,3.268-9.103c-0.429-3.538-2.081-7.33-4.959-11.376c-2.451-3.384-5.319-6.32-8.606-8.811
		c-3.288-2.489-6.37-4.006-9.248-4.55c0.233,4.979,0.409,11.182,0.526,18.611c0,0.778,0.067,2.743,0.204,5.893
		c0.135,3.151,0.183,5.583,0.146,7.293c1.205-0.545,2.896-0.525,5.076,0.056c0.738,0.197,1.555,0.449,2.451,0.761l3.325,1.283
		c1.362,0.505,2.236,0.856,2.625,1.051L71.65,41.395z M68.09,42.33c-4.046-1.593-6.535-2.509-7.467-2.742
		c-2.296-0.583-3.774-0.447-4.434,0.41v0.057c0.154,0.195,0.505,0.41,1.049,0.642c0.622,0.313,1.614,0.664,2.976,1.051
		C62.897,42.447,65.523,42.641,68.09,42.33z"/>
	<path d="M92.302,14.966c0.118,0,0.234,0.02,0.351,0.059c0.273-0.077,0.528-0.059,0.76,0.058c3.692,1.713,6.104,5.038,7.232,9.978
		c1.869-0.505,3.479-1.206,4.843-2.101c0.233-0.155,0.498-0.204,0.787-0.146c0.294,0.058,0.517,0.204,0.671,0.437
		c0.156,0.233,0.204,0.496,0.147,0.788c-0.059,0.292-0.205,0.516-0.437,0.67c-1.597,1.05-3.483,1.867-5.661,2.451
		c0.272,2.063,0.252,4.083-0.057,6.068c-0.506,3.773-1.792,6.67-3.853,8.693c-2.371,2.334-5.212,2.878-8.517,1.633
		c-2.606-1.013-4.434-3.13-5.484-6.359c-0.932-2.802-1.146-5.952-0.643-9.453c0.507-3.501,1.519-6.418,3.035-8.75
		c1.788-2.724,3.946-4.085,6.478-4.085C92.071,14.908,92.186,14.928,92.302,14.966z M98.953,27.568
		c-3.229,0.468-5.873,0.08-7.934-1.166c-1.206-0.701-2.119-1.595-2.741-2.683c-0.624-1.089-0.915-2.218-0.876-3.385
		c0.04-0.195,0.06-0.369,0.06-0.525l-0.233,0.351c-1.401,2.101-2.315,4.726-2.743,7.877c-0.429,3.189-0.233,6.029,0.585,8.517
		c0.854,2.608,2.254,4.279,4.198,5.02c2.489,0.932,4.609,0.544,6.36-1.168c1.71-1.672,2.8-4.161,3.268-7.469
		C99.128,31.148,99.146,29.358,98.953,27.568z M98.603,25.526c-0.97-4.201-2.955-7.039-5.95-8.518
		c-2.021,0.583-3.072,1.73-3.15,3.442c-0.039,0.739,0.164,1.487,0.614,2.247c0.447,0.758,1.099,1.41,1.955,1.953
		C93.704,25.625,95.88,25.917,98.603,25.526z"/>
	<path d="M119.782,35.738c-0.623,1.594-1.325,2.974-2.103,4.142c-1.165,1.789-2.429,2.995-3.792,3.618
		c-1.712,0.776-3.44,0.564-5.193-0.644c-2.45-1.671-3.653-4.666-3.614-8.984c0.039-3.694,0.911-7.37,2.624-11.027
		c1.788-3.85,3.83-6.204,6.127-7.059c1.437-0.545,2.8-0.428,4.082,0.35c1.246,0.779,2.354,2.179,3.328,4.2
		c0.233,0.507,0.154,0.933-0.234,1.284c0.234,0.079,0.429,0.214,0.583,0.408c0.037,0.079,0.078,0.175,0.117,0.292
		c0.037,0.039,0.057,0.078,0.057,0.117v0.291c0,0.35,0.021,1.702,0.061,4.055c0.036,2.354,0.066,4.416,0.086,6.184
		c0.019,1.771-0.027,4.116-0.146,7.033c0,0.581-0.02,1.146-0.057,1.691c1.205-0.545,3.188-1.284,5.951-2.218
		c0.271-0.076,0.543-0.058,0.818,0.06c0.269,0.116,0.445,0.311,0.523,0.584c0.077,0.272,0.058,0.544-0.06,0.814
		c-0.117,0.272-0.311,0.449-0.582,0.527c-3.192,1.087-5.465,1.943-6.826,2.566c-0.196,2.294-0.469,4.22-0.815,5.777
		c-0.351,1.438-0.761,2.585-1.227,3.441c-0.624,1.127-1.4,1.809-2.335,2.043c-1.129,0.233-2.1,0.096-2.917-0.41
		c-0.7-0.465-1.186-1.187-1.459-2.157c-0.429-1.635-0.252-3.231,0.525-4.786c0.974-1.904,3.054-3.656,6.243-5.25l0.116-2.744
		C119.742,38.616,119.782,37.215,119.782,35.738z M119.372,21.267c-0.779-1.671-1.632-2.779-2.567-3.325
		c-0.7-0.428-1.438-0.486-2.216-0.174c-1.791,0.662-3.462,2.645-5.016,5.951c-1.558,3.383-2.354,6.766-2.394,10.151
		c-0.039,3.578,0.854,5.99,2.683,7.235c1.128,0.778,2.199,0.935,3.209,0.468c0.973-0.429,1.925-1.363,2.859-2.801
		c0.816-1.284,1.526-2.743,2.13-4.377c0.601-1.632,1-3.033,1.195-4.2c0.116-0.505,0.194-1.079,0.234-1.721
		c0.038-0.641,0.058-1.38,0.058-2.217s0.019-1.488,0.059-1.955c0-0.154,0.02-0.543,0.058-1.166v-0.526v-0.057v-0.059
		c0-0.039,0.019-0.079,0.058-0.117c0-0.077,0.021-0.136,0.061-0.175c0.038-0.156,0.116-0.292,0.233-0.409
		C119.703,21.715,119.49,21.54,119.372,21.267z M119.313,45.13c-2.099,1.205-3.48,2.45-4.141,3.734
		c-0.546,1.088-0.661,2.196-0.351,3.325c0.117,0.428,0.311,0.739,0.585,0.935c0.308,0.194,0.735,0.212,1.282,0.057
		c0.311-0.04,0.62-0.349,0.933-0.932c0.39-0.701,0.721-1.674,0.993-2.917C118.887,48.164,119.12,46.765,119.313,45.13z"/>
	<path d="M125.85,40.114c0.388-0.468,0.874-1.441,1.458-2.918c0.504-1.323,1.069-3.014,1.692-5.078l0.99-3.5
		c0.351-1.244,0.682-2.48,0.993-3.706c0.311-1.225,0.523-2.03,0.64-2.419c0.196-0.779,0.545-1.907,1.053-3.385
		c0.271-0.817,0.503-1.497,0.7-2.042c0.116-0.311,0.213-0.543,0.29-0.7c0.039-0.155,0.087-0.271,0.146-0.35
		c0.057-0.077,0.127-0.136,0.204-0.175c0.154-0.194,0.351-0.311,0.583-0.351c0.661-0.116,1.225,0.195,1.693,0.934
		c0.232,0.313,0.485,0.817,0.757,1.517c0.156,0.312,0.381,0.886,0.671,1.722c0.291,0.836,0.533,1.449,0.73,1.837
		c0.116,0.35,0.815,1.848,2.101,4.492c1.125,2.218,1.944,4.105,2.45,5.66c1.71,4.706,1.634,8.267-0.234,10.677
		c3.384,0.896,6.163,0.138,8.345-2.276c0.154-0.194,0.378-0.3,0.671-0.321c0.289-0.018,0.544,0.058,0.756,0.234
		c0.214,0.173,0.33,0.407,0.351,0.7c0.022,0.291-0.067,0.554-0.261,0.788c-2.958,3.384-6.827,4.219-11.611,2.507
		c-0.895,0.583-1.888,0.934-2.976,1.051c-1.09,0.116-2.112,0.06-3.063-0.174c-0.954-0.234-1.875-0.604-2.77-1.11
		c-1.559-0.893-2.744-1.983-3.56-3.266c-0.08-0.155-0.154-0.332-0.234-0.527c-0.349,0.702-0.698,1.226-1.049,1.576
		c-0.196,0.234-0.429,0.351-0.702,0.351c-0.272,0-0.523-0.096-0.758-0.291c-0.233-0.195-0.351-0.429-0.351-0.702
		C125.556,40.599,125.654,40.347,125.85,40.114z M130.109,37.661c-0.195,0.431-0.082,0.993,0.349,1.692
		c0.583,0.974,1.517,1.809,2.8,2.51c1.829,1.051,3.539,1.379,5.136,0.99c-0.897-0.466-1.831-1.009-2.801-1.632
		c-0.116-0.078-0.585-0.428-1.403-1.051c-0.813-0.62-1.495-1.108-2.038-1.458c-0.779-0.503-1.402-0.835-1.868-0.991
		C130.205,37.682,130.144,37.661,130.109,37.661z M135.068,18.525l-0.411,1.225c-0.468,1.44-0.814,2.549-1.049,3.326
		c-0.079,0.389-0.272,1.187-0.583,2.393l-1.051,3.733l-0.991,3.56l-0.874,2.799c0.269,0,0.563,0.061,0.874,0.177
		c0.62,0.195,1.399,0.603,2.331,1.225c0.586,0.389,1.304,0.896,2.162,1.515c0.778,0.623,1.203,0.955,1.283,0.992
		c1.399,0.895,2.701,1.595,3.908,2.103l0.175-0.178c1.635-1.788,1.713-4.803,0.233-9.042c-0.546-1.478-1.343-3.305-2.394-5.483
		l-2.217-4.551c-0.156-0.389-0.389-1.011-0.7-1.867l-0.641-1.75L135.068,18.525z"/>
</g>
<g>
	<g>
		<path d="M13.375,67.273c0.967,0,0.967-1.5,0-1.5S12.408,67.273,13.375,67.273L13.375,67.273z"/>
	</g>
</g>
<g>
	<g>
		<path d="M8.185,60.517c1.29,0,1.29-2,0-2S6.895,60.517,8.185,60.517L8.185,60.517z"/>
	</g>
</g>
<g>
	<g>
		<path d="M6.109,52.99c1.29,0,1.29-2,0-2S4.82,52.99,6.109,52.99L6.109,52.99z"/>
	</g>
</g>
<g>
	<g>
		<path d="M6.109,45.984c1.29,0,1.29-2,0-2S4.82,45.984,6.109,45.984L6.109,45.984z"/>
	</g>
</g>
<g>
	<g>
		<path d="M9.224,40.014c1.29,0,1.29-2,0-2S7.934,40.014,9.224,40.014L9.224,40.014z"/>
	</g>
</g>
<g>
	<g>
		<path d="M13.634,36.382c1.29,0,1.29-2,0-2S12.345,36.382,13.634,36.382L13.634,36.382z"/>
	</g>
</g>
<g>
	<g>
		<path d="M19.083,34.306c1.29,0,1.29-2,0-2S17.794,34.306,19.083,34.306L19.083,34.306z"/>
	</g>
</g>
<g>
	<g>
		<path d="M25.571,32.49c1.29,0,1.29-2,0-2S24.282,32.49,25.571,32.49L25.571,32.49z"/>
	</g>
</g>
<g>
	<g>
		<path d="M32.838,34.565c1.29,0,1.29-2,0-2S31.548,34.565,32.838,34.565L32.838,34.565z"/>
	</g>
</g>
<g>
	<g>
		<path d="M38.028,37.689c0.967,0,0.967-1.5,0-1.5S37.061,37.689,38.028,37.689L38.028,37.689z"/>
	</g>
</g>
<g>
	<g>
		<path d="M42.7,40.803c0.967,0,0.967-1.5,0-1.5S41.732,40.803,42.7,40.803L42.7,40.803z"/>
	</g>
</g>
<g>
	<g>
		<path d="M16.489,73.502c0.967,0,0.967-1.5,0-1.5S15.522,73.502,16.489,73.502L16.489,73.502z"/>
	</g>
</g>
<g>
	<g>
		<path d="M13.634,80.249c0.967,0,0.967-1.5,0-1.5S12.667,80.249,13.634,80.249L13.634,80.249z"/>
	</g>
</g>
<g>
	<g>
		<path d="M9.482,87.245c1.29,0,1.29-2,0-2S8.193,87.245,9.482,87.245L9.482,87.245z"/>
	</g>
</g>
<g>
	<g>
		<path d="M8.963,93.733c1.29,0,1.29-2,0-2S7.673,93.733,8.963,93.733L8.963,93.733z"/>
	</g>
</g>
<g>
	<g>
		<path d="M12.856,101.001c1.29,0,1.29-2,0-2S11.566,101.001,12.856,101.001L12.856,101.001z"/>
	</g>
</g>
<g>
	<g>
		<path d="M19.344,105.41c1.29,0,1.29-2,0-2S18.054,105.41,19.344,105.41L19.344,105.41z"/>
	</g>
</g>
<g>
	<g>
		<path d="M26.091,109.303c1.29,0,1.29-2,0-2S24.802,109.303,26.091,109.303L26.091,109.303z"/>
	</g>
</g>
<g>
	<g>
		<path d="M32.059,109.303c1.29,0,1.29-2,0-2S30.77,109.303,32.059,109.303L32.059,109.303z"/>
	</g>
</g>
<g>
	<g>
		<path d="M38.547,108.785c1.29,0,1.29-2,0-2S37.257,108.785,38.547,108.785L38.547,108.785z"/>
	</g>
</g>
<g>
	<g>
		<path d="M45.813,104.132c0.645,0,0.645-1,0-1S45.168,104.132,45.813,104.132L45.813,104.132z"/>
	</g>
</g>
<g>
	<g>
		<path d="M51.264,98.941c0.645,0,0.645-1,0-1S50.619,98.941,51.264,98.941L51.264,98.941z"/>
	</g>
</g>
<g>
	<g>
		<path d="M55.675,94.791c0.645,0,0.645-1,0-1S55.03,94.791,55.675,94.791L55.675,94.791z"/>
	</g>
</g>
<g>
	<g>
		<path d="M152.212,34.334c0.322,0,0.322-0.5,0-0.5S151.89,34.334,152.212,34.334L152.212,34.334z"/>
	</g>
</g>
<g>
	<g>
		<path d="M158.44,31.461c0.968,0,0.968-1.5,0-1.5S157.473,31.461,158.44,31.461L158.44,31.461z"/>
	</g>
</g>
<g>
	<g>
		<path d="M165.188,28.866c0.968,0,0.968-1.5,0-1.5S164.22,28.866,165.188,28.866L165.188,28.866z"/>
	</g>
</g>
<g>
	<g>
		<path d="M172.193,27.818c1.29,0,1.29-2,0-2S170.903,27.818,172.193,27.818L172.193,27.818z"/>
	</g>
</g>
<g>
	<g>
		<path d="M179.462,30.673c1.29,0,1.29-2,0-2S178.172,30.673,179.462,30.673L179.462,30.673z"/>
	</g>
</g>
<g>
	<g>
		<path d="M185.947,36.382c1.29,0,1.29-2,0-2S184.657,36.382,185.947,36.382L185.947,36.382z"/>
	</g>
</g>
<g>
	<g>
		<path d="M188.543,44.686c1.29,0,1.29-2,0-2S187.253,44.686,188.543,44.686L188.543,44.686z"/>
	</g>
</g>
<g>
	<g>
		<path d="M187.505,53c0.968,0,0.968-1.5,0-1.5S186.537,53,187.505,53L187.505,53z"/>
	</g>
</g>
<g>
	<g>
		<path d="M185.69,59.487c0.968,0,0.968-1.5,0-1.5S184.723,59.487,185.69,59.487L185.69,59.487z"/>
	</g>
</g>
<g>
	<g>
		<path d="M182.576,64.159c0.968,0,0.968-1.5,0-1.5S181.608,64.159,182.576,64.159L182.576,64.159z"/>
	</g>
</g>
<g>
	<g>
		<path d="M187.505,69.349c0.968,0,0.968-1.5,0-1.5S186.537,69.349,187.505,69.349L187.505,69.349z"/>
	</g>
</g>
<g>
	<g>
		<path d="M191.918,76.097c0.968,0,0.968-1.5,0-1.5S190.95,76.097,191.918,76.097L191.918,76.097z"/>
	</g>
</g>
<g>
	<g>
		<path d="M193.994,84.391c1.29,0,1.29-2,0-2S192.704,84.391,193.994,84.391L193.994,84.391z"/>
	</g>
</g>
<g>
	<g>
		<path d="M193.994,91.398c1.29,0,1.29-2,0-2S192.704,91.398,193.994,91.398L193.994,91.398z"/>
	</g>
</g>
<g>
	<g>
		<path d="M190.619,99.182c1.29,0,1.29-2,0-2S189.329,99.182,190.619,99.182L190.619,99.182z"/>
	</g>
</g>
<g>
	<g>
		<path d="M184.65,104.893c1.29,0,1.29-2,0-2S183.36,104.893,184.65,104.893L184.65,104.893z"/>
	</g>
</g>
<g>
	<g>
		<path d="M176.347,108.524c1.29,0,1.29-2,0-2S175.057,108.524,176.347,108.524L176.347,108.524z"/>
	</g>
</g>
<g>
	<g>
		<path d="M169.079,106.71c1.29,0,1.29-2,0-2S167.789,106.71,169.079,106.71L169.079,106.71z"/>
	</g>
</g>
<g>
	<g>
		<path d="M160.776,103.074c1.29,0,1.29-2,0-2S159.486,103.074,160.776,103.074L160.776,103.074z"/>
	</g>
</g>
<g>
	<g>
		<path d="M156.626,96.856c0.968,0,0.968-1.5,0-1.5S155.658,96.856,156.626,96.856L156.626,96.856z"/>
	</g>
</g>
<g>
	<g>
		<path d="M150.397,92.976c0.645,0,0.645-1,0-1S149.753,92.976,150.397,92.976L150.397,92.976z"/>
	</g>
</g>
<g>
	<g>
		<path d="M59.568,90.646c0.322,0,0.322-0.5,0-0.5S59.246,90.646,59.568,90.646L59.568,90.646z"/>
	</g>
</g>
<g>
	<g>
		<path d="M46.852,43.936c0.322,0,0.322-0.5,0-0.5S46.53,43.936,46.852,43.936L46.852,43.936z"/>
	</g>
</g>
<g>
	<g>
		<path d="M143.648,91.165c0.322,0,0.322-0.5,0-0.5S143.326,91.165,143.648,91.165L143.648,91.165z"/>
	</g>
</g>
<g>
	<g>
		<path d="M63.923,89.283c0.322,0,0.322-0.5,0-0.5S63.601,89.283,63.923,89.283L63.923,89.283z"/>
	</g>
</g>
<g>
	<g>
		<path d="M69.16,87.942c0.322,0,0.322-0.5,0-0.5S68.838,87.942,69.16,87.942L69.16,87.942z"/>
	</g>
</g>
<g>
	<g>
		<path d="M74.52,86.967c0.322,0,0.322-0.5,0-0.5S74.197,86.967,74.52,86.967L74.52,86.967z"/>
	</g>
</g>
<g>
	<g>
		<path d="M80.245,86.114c0.322,0,0.322-0.5,0-0.5S79.923,86.114,80.245,86.114L80.245,86.114z"/>
	</g>
</g>
<g>
	<g>
		<path d="M85.848,85.749c0.322,0,0.322-0.5,0-0.5S85.525,85.749,85.848,85.749L85.848,85.749z"/>
	</g>
</g>
<g>
	<g>
		<path d="M91.207,85.629c0.322,0,0.322-0.5,0-0.5S90.885,85.629,91.207,85.629L91.207,85.629z"/>
	</g>
</g>
<g>
	<g>
		<path d="M96.567,85.992c0.322,0,0.322-0.5,0-0.5S96.245,85.992,96.567,85.992L96.567,85.992z"/>
	</g>
</g>
<g>
	<g>
		<path d="M101.681,85.992c0.322,0,0.322-0.5,0-0.5S101.358,85.992,101.681,85.992L101.681,85.992z"/>
	</g>
</g>
<g>
	<g>
		<path d="M106.676,85.992c0.322,0,0.322-0.5,0-0.5S106.354,85.992,106.676,85.992L106.676,85.992z"/>
	</g>
</g>
<g>
	<g>
		<path d="M112.036,86.48c0.322,0,0.322-0.5,0-0.5S111.714,86.48,112.036,86.48L112.036,86.48z"/>
	</g>
</g>
<g>
	<g>
		<path d="M116.421,86.724c0.322,0,0.322-0.5,0-0.5S116.099,86.724,116.421,86.724L116.421,86.724z"/>
	</g>
</g>
<g>
	<g>
		<path d="M121.534,87.09c0.322,0,0.322-0.5,0-0.5S121.212,87.09,121.534,87.09L121.534,87.09z"/>
	</g>
</g>
<g>
	<g>
		<path d="M126.287,87.575c0.322,0,0.322-0.5,0-0.5S125.965,87.575,126.287,87.575L126.287,87.575z"/>
	</g>
</g>
<g>
	<g>
		<path d="M131.89,88.551c0.322,0,0.322-0.5,0-0.5S131.567,88.551,131.89,88.551L131.89,88.551z"/>
	</g>
</g>
<g>
	<g>
		<path d="M139.075,89.403c0.322,0,0.322-0.5,0-0.5S138.753,89.403,139.075,89.403L139.075,89.403z"/>
	</g>
</g>
<g>
	<path d="M72.394,75.347h-1.62v-1.432c-0.638,1.098-1.611,1.648-2.917,1.648c-1.295,0-2.39-0.45-3.289-1.348
		c-0.898-0.897-1.347-1.958-1.347-3.18c0-1.236,0.449-2.3,1.347-3.196c0.899-0.893,1.994-1.341,3.289-1.341
		c1.306,0,2.279,0.542,2.917,1.628v-0.957h1.62V75.347z M70.774,71.677v-1.306c-0.114-0.591-0.385-1.101-0.814-1.529
		c-0.603-0.609-1.304-0.915-2.103-0.915c-0.806,0-1.503,0.299-2.095,0.896c-0.591,0.596-0.886,1.333-0.886,2.211
		c0,0.87,0.295,1.602,0.886,2.192c0.591,0.589,1.289,0.885,2.095,0.885c0.799,0,1.5-0.301,2.103-0.903
		C70.389,72.778,70.661,72.268,70.774,71.677z"/>
	<path d="M83.023,75.347h-1.619v-1.432c-0.637,1.098-1.61,1.648-2.917,1.648c-1.294,0-2.39-0.45-3.287-1.348
		c-0.898-0.897-1.349-1.958-1.349-3.18c0-1.236,0.45-2.3,1.349-3.196c0.897-0.893,1.993-1.341,3.287-1.341
		c1.307,0,2.28,0.542,2.917,1.628V62.47h1.619V75.347z M81.404,71.677v-1.306c-0.113-0.591-0.384-1.101-0.813-1.529
		c-0.602-0.609-1.305-0.915-2.104-0.915c-0.805,0-1.503,0.299-2.093,0.896c-0.591,0.596-0.886,1.333-0.886,2.211
		c0,0.87,0.295,1.602,0.886,2.192c0.59,0.589,1.288,0.885,2.093,0.885c0.799,0,1.502-0.301,2.104-0.903
		C81.021,72.778,81.291,72.268,81.404,71.677z"/>
	<path d="M89.101,66.497c1.306,0,2.402,0.448,3.292,1.341c0.889,0.896,1.334,1.96,1.334,3.196c0,1.222-0.445,2.282-1.334,3.18
		c-0.89,0.898-1.986,1.348-3.292,1.348c-1.294,0-2.392-0.45-3.289-1.348c-0.898-0.897-1.347-1.958-1.347-3.18
		c0-1.236,0.448-2.3,1.347-3.196C86.709,66.945,87.807,66.497,89.101,66.497z M87.006,68.824c-0.59,0.596-0.885,1.333-0.885,2.211
		c0,0.87,0.295,1.602,0.885,2.192c0.59,0.589,1.289,0.885,2.095,0.885c0.799,0,1.494-0.296,2.089-0.885
		c0.594-0.591,0.891-1.323,0.891-2.192c0-0.877-0.297-1.615-0.891-2.211c-0.595-0.597-1.29-0.896-2.089-0.896
		C88.295,67.928,87.596,68.227,87.006,68.824z"/>
	<path d="M95.195,67.168h1.619v0.94c0.64-1.069,1.608-1.602,2.906-1.602c1.301,0,2.398,0.445,3.293,1.337
		c0.897,0.892,1.342,1.955,1.342,3.191c0,1.222-0.444,2.282-1.342,3.18c-0.895,0.898-1.992,1.348-3.293,1.348
		c-1.298,0-2.267-0.541-2.906-1.62v4.251h-1.619V67.168z M96.814,70.345v1.377c0.108,0.58,0.385,1.089,0.831,1.531
		c0.587,0.578,1.277,0.868,2.075,0.868c0.801,0,1.497-0.297,2.093-0.891c0.593-0.594,0.888-1.326,0.888-2.196
		c0-0.877-0.295-1.615-0.888-2.211c-0.596-0.597-1.292-0.896-2.093-0.896c-0.798,0-1.502,0.305-2.109,0.915
		C97.188,69.265,96.923,69.766,96.814,70.345z"/>
	<path d="M106.701,67.168v-3.177h1.61v3.177h1.522v1.395h-1.522v6.784h-1.61v-6.784h-1.52v-1.395H106.701z"/>
	<path d="M117.168,68.608v6.739h-1.617v-8.179h1.012c0.439-0.292,0.988-0.438,1.646-0.438c0.764,0,1.392,0.191,1.887,0.572
		c0.482-0.38,1.105-0.572,1.87-0.572c0.766,0,1.407,0.262,1.934,0.787c0.47,0.483,0.718,1.049,0.743,1.7v6.13h-1.622v-6.479
		c-0.069-0.494-0.422-0.743-1.055-0.743c-0.523,0-0.885,0.233-1.082,0.699v6.523h-1.62v-6.479h-0.008
		c-0.066-0.494-0.416-0.743-1.047-0.743C117.767,68.125,117.421,68.287,117.168,68.608z"/>
	<path d="M127.649,71.007v0.028c0,0.87,0.296,1.602,0.885,2.192c0.592,0.589,1.289,0.885,2.096,0.885
		c0.801,0,1.499-0.301,2.103-0.903c0.082-0.083,0.245-0.271,0.482-0.564l1.521,0.537c-0.228,0.382-0.488,0.719-0.786,1.012
		c-0.909,0.913-2.015,1.37-3.32,1.37c-1.296,0-2.394-0.45-3.289-1.348c-0.898-0.897-1.348-1.958-1.348-3.18
		c0-1.236,0.449-2.3,1.348-3.196c0.896-0.893,1.993-1.341,3.289-1.341c1.306,0,2.411,0.453,3.32,1.36
		c0.781,0.788,1.171,1.838,1.171,3.15H127.649z M127.935,69.593h5.36c-0.383-1.11-1.271-1.665-2.665-1.665
		C129.226,67.928,128.329,68.483,127.935,69.593z"/>
</g>
</svg>
