<?xml version="1.0" encoding="utf-8"?>
<!-- Generator: Adobe Illustrator 15.1.0, SVG Export Plug-In . SVG Version: 6.00 Build 0)  -->
<!DOCTYPE svg PUBLIC "-//W3C//DTD SVG 1.0//EN" "http://www.w3.org/TR/2001/REC-SVG-20010904/DTD/svg10.dtd">
<svg version="1.0" id="Layer_1" xmlns="http://www.w3.org/2000/svg" xmlns:xlink="http://www.w3.org/1999/xlink" x="0px" y="0px"
	 width="150px" height="150px" viewBox="0 0 150 150" enable-background="new 0 0 150 150" xml:space="preserve">
<path fill="#FFFFFF" d="M111.968,83.5c0,0-0.004,0-0.006,0c-0.444-2-2.018-6.129-3.147-8.991
	c-0.063-3.345-1.774-10.727-13.506-19.599c0,0-5.303-4.763-12.996-6.693l0.479-0.881c0.996-0.759,7.703,0.801,7.703,0.801
	c3.691,4.493,6.741,1.521,6.741,1.521c-1.525-4.092-15.941-5.618-15.941-5.618c-1.441-0.154-6.833,3.186-7.236,3.437
	c-0.271,0.022-0.543,0.047-0.816,0.078c0,0-0.179,0.066-0.497,0.066l2.929-3.998c0,0,5.031-1.276,8.161-1.036
	c0,0,3.53,3.213,6.42,0.967c0,0-1.524-3.69-16.611-3.931c0,0-5.169,3.773-7.76,5.699c0,0-5.037,2.547-5.212,6.872
	c-3.389,2.243-6.185,5.491-6.368,10.14c0,0-0.159,0.562-0.079,1.284l0.24,0.883c0,0-8.586,7.303-11.154,14.685
	c0,0-2.247,8.369,0.883,10.19c0,0,2.006,1.045,2.568-2.406c0,0-1.204-6.227,1.846-10.015c0,0,4.012-4.831,10.03-8.201
	c0,0,2.407-1.524,3.771-3.049c0,0,12.438-6.5,20.784-3.371c0,0,10.752,2.087,12.196,15.087c0,0,0.183,7.089-3.451,10.761
	c-0.373,0.252-2.195,1.821-2.3,2.271c-2.021,2.566-3.545,5.938-3.545,5.938c-0.127,0.217-0.771,1.109-0.871,2.109
	c-0.002,0-0.002,0-0.003,0c0,0-0.004-0.039-0.01-0.025c-0.266,0.557-0.445,1.062-0.551,1.558c-0.515,1.584-1.738,5.688-1.608,7.584
	c0.04,0.57,0.218,0.244,0.218,0.244s1.062-2.935,1.933-3.955c0.069,0.126,0.138,0.239,0.204,0.342c0,0-0.972,1.884-0.883,2.318
	c0,0-0.01,0.273,0.162,0.112c0.285-0.266,0.934-1.126,1.478-1.529c1.614,1.436,4.213,0.902,4.213,0.902
	c0.275-0.938,3.318-1.036,3.434-1.115c0.553-0.05,2.955,1.063,3.631,1.299c0.017,0.122,0.563,1.036,1.117,0.448
	c0,0,0.317-0.354,0.299-0.43l0.554-1.644c0.035-0.269,0.415-2.313-0.325-3.336c-1.972-3.104-3.871-6.392-3.204-7.385
	c1.57-0.425,5.053-2.603,8.184-6.264l1.192,3.213c-0.839,0.742-1.649,2.091-1.993,4.528c0,0-0.376,0.854,0.988,1.187
	c0,0,2.638-1.596,4.206-3.771c0.489-0.676-0.259-1.864-0.704-2.825c0,0-0.011,0-0.025-0.002l-0.959-6.601
	c0.399-0.876,0.754-1.825,1.053-2.857c0.94,1.478,1.838,3.317,2.304,4.314c-0.587,0.897-1,2.305-0.635,4.49
	c0,0-0.103,0.816,1.175,0.576c0,0,1.362-1.642,2.904-3.509C114.069,85.766,112.66,83.5,111.968,83.5z"/>
<path fill="#FFFFFF" d="M85.808,75.817c-0.489-0.61-3.788-0.978-3.788-0.978c-0.487-2.076-4.029-5.496-4.029-5.496
	c-2.811,1.832-4.154,6.596-4.154,6.596c-4.763,6.962-1.71,9.771-1.71,9.771c0.001,0,0.002,0.002,0.003,0.003
	c-0.323,0.876-1.186,1.88-3.381,2.218c0,0-4.093,0.401-7.143-2.809c0,0-1.203-4.093-2.647-5.857c0,0-0.401-2.408,3.049-2.327
	c0,0,0.031,0.005,0.08,0.018c0.129-0.003,4.163-0.063,3.769,2.148c0,0-0.373,1.438-1.871,0.759c0,0,1.71,0.359,1.389-1.363
	c-0.857-0.857-1.108-0.711-2.323-0.618c-0.39,0.03-0.642,0.18-0.642,0.18s-1.364,0.723-0.803,2.567c0,0,1.605,3.233,5.537,1.496
	c0,0,2.889-1.179,1.043-5.188c0,0-2.006-5.375-10.19-2.165c0,0-6.26,1.766-7.303,9.389c0,0-3.37,2.765-3.37,7.04
	c0,0,0.401,3.231,2.809,0.583c0,0,0.574,3.3,1.982,6.973c-0.398,0.023-0.875,0.14-0.779,0.57c0,0,0.241,9.71,5.698,12.357
	c0,0,3.554,0.883,4.597-1.766c0,0-0.129-0.997-2.129-1.505v-0.003c1,0.069,1.082,0.119,1.408,0.145c0,0,0.849,0.137,1.926,0.085
	c0.981,0.999,3.022,2.175,6.761,2.482c0,0,2.546,0,3.429-1.283c0,0,0.089-2.305-3.712-3.127c2.562-1.419,5.54-3.842,8.57-7.947
	c0,0,2.493-2.889,2.253-6.1c0,0,0.42-1.402,1.42-2.285c5.897-0.134,6.204-8.166,6.204-8.166c2.81-2.031,3.665-7.252,3.665-7.252
	C89.471,74.84,85.808,75.817,85.808,75.817z M77.889,72.348c1.437,0.568,1.495,2.123,1.495,2.123l-2.333,0.15
	C77.021,73.035,77.889,72.348,77.889,72.348z M78.217,84.401c0,0-1.444-2.306,0-2.276c0,0,0.978,0.195,0.749,1.208
	c0,0,1.681-1.69,1.79-0.07C80.756,83.263,79.981,85.044,78.217,84.401z M87.342,80.425c0-0.688-0.897-2.992-0.897-2.992
	c0.599-0.029,2.723-0.179,2.723-0.179C89.257,78.271,87.342,80.425,87.342,80.425z"/>
<g>
	<path fill="#FFFFFF" d="M39.481,66.331c-0.15-0.145-0.298-0.342-0.477-0.461c-0.229-0.177-0.459-0.326-0.72-0.425
		c-0.236-0.069-0.496-0.193-0.759-0.239c-0.398-0.054-0.781-0.32-1.218-0.19c-0.028,0.025-0.053-0.004-0.08-0.005
		c-0.153-0.118-0.313-0.129-0.506-0.035c-0.028,0.024-0.11,0.046-0.135,0.018c-0.177-0.146-0.423-0.083-0.605-0.148
		c-0.257-0.151-0.52-0.224-0.786-0.241c-0.223-0.256-3.523-0.51-3.84-0.558c-0.081-0.007-0.157-0.064-0.234-0.097
		c-0.132-0.036-0.261-0.099-0.419-0.137c-0.264-0.044-0.554-0.117-0.843-0.191c-0.579-0.146-1.128-0.317-1.707-0.464
		c-0.474-0.113-0.976-0.201-1.454-0.261c-0.477-0.06-0.985-0.068-1.466-0.074c-0.455-0.004-0.909-0.009-1.337-0.012
		c-0.321,0.005-0.346-0.023-0.326-0.316c0.021-0.694,0.04-1.361,0.034-2.058c-0.004-0.321-0.034-0.671-0.092-0.996
		c-0.037-0.243-0.14-0.304-0.353-0.318c-0.213-0.015-0.403,0.026-0.644,0.036c-0.021,0.293-0.065,0.558-0.11,0.821
		c-0.014,0.214-0.058,0.451-0.099,0.663c-0.042,0.211-0.109,0.42-0.177,0.629c-0.105,0.367-0.213,0.762-0.318,1.129
		c-0.1,0.287-0.128,0.313-0.421,0.292s-0.559-0.038-0.824-0.083c-0.317-0.049-0.633-0.124-0.926-0.145
		c-0.453-0.03-0.907-0.035-1.333-0.063c-0.025-0.029-0.05-0.058-0.048-0.085c0.007-0.105,0.015-0.213,0.02-0.292
		c0.222-1.67,0.094-3.312-0.329-4.945c-0.09-0.247-0.232-0.524-0.377-0.748c-0.122-0.169-0.273-0.313-0.423-0.457
		c-0.324-0.344-0.679-0.636-1.15-0.774c-0.314-0.102-0.615-0.016-0.906-0.063c-0.066,0.183,0.008,0.268,0.109,0.355
		c0.103,0.061,0.206,0.121,0.307,0.208c0.484,0.354,0.879,0.836,0.943,1.456c0.078,0.434,0.126,0.892,0.097,1.317
		c-0.023,0.722-0.124,1.409-0.331,2.091c-0.175,0.604-0.403,1.203-0.552,1.808c-0.254,0.973-0.428,1.951-0.524,2.96
		c-0.038,0.56-0.079,1.146-0.117,1.704c-0.006,0.481,0.037,1.02,0.165,1.483c0.417,1.34,1.236,2.653,2.527,3.33
		c0.388,0.187,0.833,0.325,1.265,0.274c1.076-0.087,1.77-0.842,2.31-1.688c0.356-0.511,0.251-1.32,0.187-1.94
		c-0.02-0.108-0.037-0.243-0.111-0.328c-0.118-0.223-0.307-0.209-0.428-0.003c-0.098,0.261-0.197,0.548-0.269,0.811
		c-0.083,0.423-0.268,0.784-0.531,1.114c-0.266,0.356-0.627,0.572-0.989,0.762c-1.199,0.72-2.82-0.622-2.464-1.908
		c0.257-1.025,0.542-2.049,0.853-3.071c0.043-0.238,0.138-0.446,0.206-0.655c1.25,0.112,2.475,0.197,3.724,0.31
		c0.079,0.406,0.16,0.786,0.212,1.191c0.079,0.407,0.24,0.793,0.626,1.007c0.231,0.148,0.288,0.1,0.331-0.139
		c0.109-0.421,0.193-0.87,0.303-1.29c0.035-0.132,0.071-0.262,0.133-0.392c0.293,0.02,0.558,0.064,0.822,0.109
		c0.951,0.173,1.91,0.238,2.842,0.303c0.424,0.056,0.852,0.059,1.25,0.112c0.954,0.146,1.906,0.291,2.872,0.25
		c0.08,0.006,0.16,0.012,0.238,0.044c0.477,0.059,3.96,0.379,4.464,0.439c0.346,0.024,0.696-0.005,1.04,0.045
		c0.506,0.035,0.983,0.095,1.488,0.155c0.399,0.027,0.796,0.082,1.221,0.138c0.266,0.019,0.561,0.012,0.829,0.003
		c0.081,0.006,0.164-0.041,0.221-0.091c0.174-0.203,0.322-0.406,0.471-0.637C39.682,66.532,39.581,66.444,39.481,66.331z"/>
	<path fill="#FFFFFF" d="M51.111,38.043c0.218-0.346,0.197-0.402-0.133-0.714c-0.019,0.02-0.074,0.04-0.166,0.137
		c0.014-0.17,0.012-0.283,0.027-0.378c0.026-0.417-0.855-0.883-1.089-1.14c-0.465-0.44-0.819-0.959-1.118-1.499
		c-0.257-0.427-0.55-0.778-0.845-1.166c-0.747-1.075-1.603-1.995-2.479-2.934c-0.644-0.718-1.268-1.418-1.891-2.118
		c-0.039-0.037-0.097-0.092-0.154-0.109c-0.499-0.289-0.852-0.77-1.439-0.848c-0.095-0.016-0.154-0.109-0.249-0.125
		c-0.134-0.053-0.286-0.087-0.438-0.12c-0.285-0.049-0.528,0.015-0.769,0.191c-0.315,0.216-0.648,0.453-0.789,0.834
		c-0.035,0.115-0.126,0.211-0.18,0.308c-0.274,0.328-0.528,0.675-0.784,1.022c-0.055,0.059-0.128,0.136-0.164,0.212
		c-0.128,0.136-0.238,0.29-0.347,0.444c-0.236,0.328-0.453,0.673-0.689,1.001c-0.072,0.115-0.125,0.249-0.216,0.384
		c0.346,0.217,0.872,0.127,1.109-0.163c0.347-0.406,0.676-0.793,0.871-1.271c0.054-0.096,0.108-0.191,0.182-0.231
		c0.333-0.236,0.571-0.526,0.749-0.909c0.034-0.114,0.069-0.228,0.277-0.215c0.08,0.149,0.159,0.298,0.24,0.484
		c0.178,0.315,0.358,0.669,0.575,0.984c0.531,0.76,1.099,1.48,1.648,2.22c0.254,0.314,0.508,0.628,0.799,0.903
		c0.486,0.496,0.99,0.973,1.494,1.45c0.173,0.127,0.312,0.332,0.355,0.557c0.044,0.263,0.09,0.525,0.153,0.77
		c0.166,0.523,0.162,1.071,0.063,1.602c-0.084,0.362-0.149,0.741-0.367,1.049c-0.255,0.31-0.59,0.507-0.905,0.724
		c-0.24,0.176-0.56,0.242-0.862,0.212c-0.529-0.023-1.024-0.16-1.501-0.354c-1.013-0.444-1.864-1.138-2.731-1.812
		c-0.715-0.566-1.318-1.248-1.887-1.968c-0.371-0.462-0.742-0.886-1.113-1.348c-0.491-0.685-0.964-1.389-1.455-2.074
		c-0.493-0.723-1.003-1.426-1.495-2.149c-0.571-0.833-1.123-1.649-1.47-2.602c-0.164-0.449-0.346-0.878-0.302-1.351
		c-0.005-0.189,0.008-0.397,0.002-0.585c-0.032-0.472,0.128-0.834,0.439-1.164c0.074-0.078,0.147-0.155,0.201-0.251
		c0.178-0.382,0.531-0.6,0.728-0.964c0.018-0.057,0.074-0.078,0.092-0.097c0.52-0.316,1.04-0.633,1.542-0.93
		c0.167-0.1,0.299-0.084,0.454,0.024c0.27,0.219,0.541,0.438,0.811,0.657c0.251,0.201,0.521,0.42,0.792,0.639
		c0.154,0.109,0.305,0.105,0.356-0.066c0.068-0.304,0.096-0.645,0.125-0.948c-0.002-0.075-0.06-0.13-0.081-0.187
		c-0.196-0.259-0.373-0.499-0.568-0.758c-0.118-0.148-0.216-0.277-0.352-0.406c-0.291-0.275-0.582-0.55-0.891-0.806
		c-0.271-0.219-0.596-0.38-0.954-0.351c-0.508,0.032-0.995,0.198-1.461,0.381c-0.43,0.144-0.781,0.437-1.133,0.692
		c-0.703,0.511-1.33,1.057-1.781,1.806c-0.144,0.269-0.287,0.574-0.448,0.862c-0.162,0.287-0.267,0.592-0.295,0.933
		c-0.109,0.814-0.067,1.664-0.043,2.494c0.031,0.433,0.118,0.846,0.28,1.257c0.04,0.074,0.062,0.167,0.083,0.261
		c0.042,0.15,0.065,0.282,0.125,0.412c0.223,0.541,0.464,1.064,0.705,1.585c0.848,1.978,1.789,3.896,3.047,5.674
		c0.727,1.018,1.49,1.998,2.328,2.937c0.525,0.571,1.181,1.043,1.817,1.498c0.09,0.064,0.181,0.125,0.274,0.185
		c0.145,0.114,0.289,0.23,0.403,0.343c0.292,0.304,0.538,0.583,0.82,0.851c0.151,0.17,0.256,0.315,0.421,0.462
		c0.246,0.219,0.374,0.437,0.573,0.631c0.257,0.315,0.513,0.631,0.806,0.935c0.036,0.048,0.106,0.085,0.141,0.134
		c0.269,0.351,0.56,0.715,0.815,1.09c0.035,0.048,0.093,0.109,0.117,0.121c0.126,0.277,0.301,0.52,0.451,0.749
		c0.059,0.062,0.094,0.109,0.116,0.182c0.056,0.18,0.125,0.337,0.145,0.528c-0.02,0.44-0.583,0.537-0.965,0.519
		c-0.358-0.007-0.63-0.12-0.986-0.245c-0.213-0.052-0.417-0.068-0.642-0.156c-0.189-0.099-0.366-0.222-0.555-0.32
		c-0.389-0.234-0.839-0.47-1.179-0.799c-0.317-0.257-0.635-0.514-0.976-0.782c-0.141-0.134-0.282-0.268-0.435-0.379
		c-0.117-0.121-0.244-0.338-0.35-0.424c-0.213-0.111-0.315-0.375-0.553-0.44c0,0,0,0-0.024-0.013
		c-0.199-0.194-0.472-0.307-0.709-0.372c-0.047-0.024-0.119-0.002-0.118-0.062c-0.153-0.111-0.368-0.103-0.56-0.083
		c-0.238-0.004-0.443,0.099-0.648,0.203c-0.289,0.149-0.555,0.312-0.786,0.522c-0.291,0.209-0.545,0.407-0.848,0.641
		c-0.4,0.302-0.903,0.401-1.405,0.438c-0.096,0.011-0.143-0.014-0.176-0.122c-0.022-0.073-0.045-0.145-0.079-0.253
		c-0.064-0.395-0.213-0.744-0.409-1.058c-0.104-0.205-0.196-0.374-0.325-0.531c-0.117-0.122-0.197-0.314-0.337-0.448
		c-0.094-0.109-0.188-0.218-0.282-0.268c-0.095-0.05-0.153-0.11-0.259-0.196c-0.082-0.073-0.152-0.17-0.259-0.196
		c-0.107-0.025-0.178-0.063-0.272-0.112c-0.106-0.085-0.189-0.099-0.332-0.114c-0.12-0.002-0.264,0.043-0.384,0.1
		c-0.108,0.035-0.192,0.081-0.325,0.102c-0.156,0.069-0.241,0.115-0.326,0.221c-0.159,0.188-0.341,0.364-0.488,0.588
		c-0.171,0.212-0.344,0.483-0.409,0.78c-0.015,0.143,0.018,0.311,0.063,0.455c0.059,0.061,0.081,0.133,0.115,0.241
		c0.104,0.205,0.111,0.42,0.276,0.566c0.083,0.073,0.152,0.17,0.222,0.267c0.069,0.097,0.152,0.17,0.209,0.291
		c0.174,0.242,0.396,0.51,0.619,0.717c0.423,0.343,0.884,0.613,1.382,0.814c0.13,0.038,0.308,0.102,0.462,0.151
		c0.424,0.091,0.827,0.063,1.217-0.04c0.242,0.162,0.431,0.378,0.628,0.557c0.107,0.113,0.221,0.201,0.309,0.281
		c0.044,0.04,0.096,0.055,0.14,0.095c0.646,0.763,1.404,1.418,2.091,2.137c0.446,0.485,0.867,0.963,1.32,1.423
		c0.125,0.146,0.25,0.292,0.409,0.419c0.082,0.106,0.163,0.212,0.277,0.299c0.125,0.146,0.284,0.273,0.41,0.42
		c0.151,0.153,0.302,0.306,0.446,0.484c0.169,0.187,0.306,0.392,0.476,0.577c0.018,0.033,0.037,0.065,0.074,0.132
		c-0.194,0.001-0.33-0.009-0.484-0.053c-0.18-0.05-0.378-0.133-0.591-0.165c-0.264-0.046-0.434-0.232-0.684-0.33
		c-0.172-0.076-0.418-0.09-0.599-0.14c-0.411-0.114-0.814-0.256-1.212-0.423c-0.378-0.133-0.782-0.274-1.154-0.433
		c-0.275-0.105-0.489-0.331-0.725-0.48c-0.261-0.156-0.544-0.235-0.819-0.34c-0.519-0.229-1.081-0.496-1.635-0.597
		c-0.392-0.082-0.776,0.005-1.181-0.136c-0.309-0.086-0.65-0.154-0.966-0.214c-0.051-0.016-0.128-0.037-0.187-0.025
		c-0.202,0.026-0.389,0.002-0.568-0.048c-0.18-0.051-0.312,0.023-0.38,0.171c-0.08,0.088-0.142,0.209-0.196,0.305
		c-0.149,0.235-0.188,0.474-0.176,0.727c0.147,0.069,0.243,0.124,0.357,0.211c0.287,0.164,0.574,0.327,0.86,0.49
		c0.364,0.186,0.728,0.37,1.052,0.6c0.349,0.236,0.713,0.421,1.077,0.605c0.32,0.146,0.666,0.298,0.985,0.442
		c0.103,0.029,0.198,0.083,0.279,0.189c0.354,0.32,0.667,0.685,0.974,1.076c0.081,0.105,0.188,0.219,0.27,0.324
		c0.501,0.584,0.938,1.205,1.399,1.833c0.137,0.205,0.248,0.402,0.352,0.625c0.012,0.059,0.03,0.092,0.042,0.15
		c-0.065,0.037-0.125,0.048-0.158,0.066c-0.138,0.1-0.3,0.083-0.461,0.065c-0.026-0.008-0.077-0.022-0.103-0.029
		c-0.18-0.05-0.382-0.023-0.576-0.021c-0.188-0.025-0.386-0.108-0.591-0.167c-0.231-0.064-0.477-0.077-0.69-0.109
		c-0.489-0.137-0.908-0.42-1.363-0.575c-0.878-0.328-1.792-0.529-2.721-0.678c-0.374-0.049-0.757-0.267-1.138-0.291
		c-0.135-0.01-0.293,0.057-0.421,0.021c-0.4-0.057-0.75-0.486-1.153-0.239c-0.033,0.019-0.033,0.019-0.059,0.012
		c-0.117,0.022-0.227,0.02-0.308-0.087c-0.019-0.032-0.096-0.054-0.114-0.087c-0.084,0.004-0.175,0.034-0.26,0.038
		c-0.12,0.133-0.17,0.313-0.22,0.493c-0.037,0.128-0.007,0.22,0.089,0.273c0.133,0.121,0.247,0.208,0.379,0.328
		c0.114,0.088,0.254,0.183,0.394,0.276c0.217,0.116,0.434,0.232,0.65,0.349c0.122,0.062,0.243,0.123,0.364,0.186
		c0.49,0.33,0.993,0.609,1.53,0.871c0.14,0.095,0.287,0.163,0.435,0.232c0.121,0.062,0.228,0.175,0.356,0.21
		c0.268,0.131,0.511,0.254,0.794,0.334c0.154,0.042,0.327,0.118,0.5,0.194c0.287,0.164,0.588,0.275,0.922,0.369
		c0.257,0.071,0.514,0.144,0.771,0.216c0.078,0.021,0.155,0.043,0.232,0.064c0.407,0.031,0.826,0.12,1.24,0.125
		c0.422-0.021,0.817-0.049,1.216-0.186c0.065-0.037,0.106-0.082,0.19-0.086c0.202-0.026,0.355-0.178,0.508-0.329
		c0.121-0.133,0.241-0.266,0.291-0.445c0.051-0.18,0.094-0.334,0.207-0.441c0.04-0.044,0.055-0.095,0.043-0.154
		c0.05-0.18,0.075-0.367,0.125-0.547c0.014-0.051-0.004-0.084-0.023-0.117c-0.071-0.241-0.083-0.494-0.187-0.717
		c-0.115-0.282-0.211-0.531-0.4-0.75c-0.056-0.098-0.118-0.171-0.174-0.27c-0.107-0.113-0.181-0.245-0.288-0.358
		c-0.213-0.226-0.427-0.452-0.576-0.715c-0.019-0.034-0.037-0.066-0.055-0.1c-0.125-0.146-0.258-0.266-0.357-0.404
		c-0.019-0.033-0.03-0.092-0.042-0.15c0.051,0.015,0.103,0.029,0.154,0.043c0.121,0.062,0.269,0.131,0.422,0.174
		c0.198,0.083,0.404,0.141,0.628,0.231c0.43,0.148,0.885,0.303,1.34,0.458c0.122,0.062,0.224,0.091,0.327,0.119
		c0.456,0.155,0.933,0.233,1.424,0.261c0.407,0.03,0.798-0.082,1.142-0.318c0.212-0.163,0.398-0.333,0.426-0.63
		c0.014-0.051,0.036-0.128,0.083-0.198c0.102-0.165,0.127-0.353,0.151-0.54c0.01-0.135-0.012-0.253-0.068-0.352
		c-0.13-0.229-0.241-0.428-0.378-0.632c-0.048-0.124-0.129-0.23-0.178-0.354c-0.155-0.237-0.285-0.468-0.433-0.731
		c-0.038-0.065-0.074-0.131-0.137-0.204c-0.018-0.033-0.03-0.092-0.074-0.132c-0.723-0.784-1.486-1.524-2.275-2.271
		c-0.133-0.12-0.265-0.24-0.423-0.368c-0.114-0.087-0.155-0.237-0.288-0.357c-0.347-0.347-0.635-0.704-0.988-1.025
		c-0.044-0.039-0.063-0.072-0.088-0.08c-0.181-0.244-0.336-0.481-0.63-0.619c-0.077-0.021-0.133-0.121-0.203-0.168
		c-0.037-0.065-0.106-0.113-0.166-0.102c-0.11-0.003-0.18-0.051-0.243-0.123c-0.019-0.033-0.07-0.048-0.114-0.088
		c-0.025-0.007-0.077-0.021-0.121-0.062c-0.021-0.024-0.04-0.04-0.06-0.054c0.379-0.159,0.703-0.377,1.072-0.57
		c0.315-0.197,0.63-0.454,0.92-0.664c0.339-0.244,0.637-0.238,0.92-0.03c0.047,0.024,0.071,0.037,0.129,0.098
		c0.212,0.171,0.423,0.343,0.658,0.586c0.363,0.341,0.75,0.754,1.209,1.085c0.118,0.063,0.224,0.148,0.353,0.246
		c0.354,0.245,0.684,0.478,1.038,0.724c0.259,0.196,0.589,0.369,0.861,0.542c0.237,0.123,0.461,0.211,0.71,0.312
		c0.333,0.113,0.723,0.289,1.091,0.391c0.689,0.18,1.3,0.049,1.844-0.299c0.158-0.129,0.339-0.245,0.438-0.434
		c0.109-0.094,0.182-0.176,0.256-0.317c0.17-0.152,0.246-0.354,0.155-0.582c-0.023-0.072,0.002-0.12,0.003-0.18
		c0.062-0.118,0.052-0.214,0.018-0.321c0.027-0.167,0.042-0.311,0.044-0.429c-0.01-0.097-0.033-0.168-0.03-0.288
		c-0.044-0.204-0.147-0.408-0.191-0.612c-0.069-0.156-0.102-0.323-0.194-0.493c-0.046-0.084-0.105-0.145-0.14-0.193
		c-0.069-0.097-0.116-0.182-0.198-0.255c-0.233-0.303-0.466-0.605-0.675-0.896c-0.058-0.121-0.139-0.254-0.245-0.339
		c-0.164-0.206-0.363-0.4-0.561-0.655c-0.296-0.362-0.851-0.994-1.371-1.573c2.446,0.721,5.156,0.027,6.603-2.432
		c0.252-0.422,0.391-0.879,0.566-1.337c0.018-0.057-0.004-0.151-0.006-0.227c-0.025-0.207-0.049-0.414,0.02-0.642
		c0.017-0.095-0.006-0.227-0.047-0.339c-0.041-0.112-0.063-0.206,0.048-0.322c0.076,0.036,0.134,0.091,0.191,0.108
		c0.773,0.658,1.638,1.182,2.61,1.513c0.381,0.14,0.799,0.205,1.216,0.269c0.095,0.016,0.206-0.025,0.301-0.047
		c-0.02-0.018-0.039-0.036-0.077-0.035c0.019-0.019,0.018-0.057,0.036-0.076C51.092,37.987,51.093,38.025,51.111,38.043z
		 M29.599,44.648c-0.177-0.123-0.342-0.209-0.508-0.296c-0.047-0.025-0.142-0.074-0.236-0.124c-0.047-0.024-0.106-0.025-0.141-0.074
		c-0.295-0.185-0.612-0.441-0.786-0.743c-0.046-0.084-0.081-0.133-0.152-0.17c-0.094-0.049-0.188-0.158-0.245-0.279
		c-0.059-0.062-0.068-0.217-0.163-0.266c-0.023-0.012-0.022-0.072-0.01-0.096c-0.011-0.036,0.025-0.047,0.038-0.071
		c0.194-0.14,0.435-0.254,0.709-0.261c0.083,0.014,0.131,0.038,0.178,0.063c0.307,0.221,0.624,0.478,0.919,0.663
		c0.118,0.062,0.201,0.134,0.281,0.268c0.14,0.193,0.268,0.352,0.372,0.556c0.021,0.132,0.138,0.254,0.22,0.387
		c0.092,0.168,0.193,0.493,0.213,0.684C30.038,44.848,29.788,44.747,29.599,44.648z"/>
	<path fill="#FFFFFF" d="M63.235,18.553c-0.109,0.009-0.185,0.034-0.235,0.135c-0.06,0.16-0.06,0.329-0.093,0.481
		c-0.008,0.228-0.041,0.464-0.117,0.659c-0.05,0.186-0.092,0.396-0.143,0.583c-0.017,0.034,0,0.084-0.009,0.144
		c-0.142,0.498-0.311,1.004-0.419,1.519c-0.11,0.262-0.169,0.507-0.228,0.751c-0.093,0.313-0.176,0.65-0.26,0.988
		c-0.093,0.313-0.151,0.642-0.243,0.955c-0.043,0.042-0.043,0.126-0.043,0.211c-0.243,0.87-0.478,1.764-0.764,2.676
		c-0.084,0.254-0.185,0.541-0.269,0.794c-0.084,0.169-0.144,0.245-0.211,0.38c-0.059,0.076-0.126,0.127-0.235,0.135
		c-0.22,0.017-0.397-0.176-0.414-0.396c-0.043-0.127-0.061-0.262-0.119-0.355c-0.018-0.05-0.034-0.101-0.034-0.101
		c-0.034-0.102-0.042-0.211-0.102-0.304c-0.025-0.076-0.06-0.177-0.084-0.253c-1.01-3.012-1.613-6.159-2.841-9.069
		c-0.067-0.118-0.102-0.219-0.094-0.362c-0.009-0.026-0.024-0.077-0.042-0.127c-0.034-0.102-0.068-0.203-0.102-0.304
		c-0.102-0.388-0.246-0.734-0.331-1.071c-0.059-0.177-0.152-0.371-0.187-0.556c0.076-0.026,0.152-0.051,0.203-0.068
		c0.024-0.008,0.101-0.034,0.151-0.051c0.16-0.025,0.338-0.084,0.515-0.144c0.16-0.025,0.363-0.093,0.515-0.229
		c-0.009-0.025,0,0,0.017-0.034c0.076-0.025,0.169-0.084,0.203-0.152c0.084-0.085,0.143-0.161,0.21-0.211
		c0.186,0.051,0.212,0.042,0.245-0.11c0.025-0.009,0.017-0.034,0.008-0.059c0.018-0.118,0.06-0.161,0.16-0.194
		c0.076-0.025,0.085-0.085,0.151-0.135c0.06-0.076,0.093-0.144,0.16-0.194c0.043-0.042,0.094-0.06,0.135-0.102
		c0.094-0.144,0.211-0.211,0.347-0.313c0.025-0.009,0.05-0.017,0.075-0.025c0.144-0.161,0.32-0.305,0.473-0.439
		c0.041-0.042,0.084-0.084,0.101-0.119c0.093-0.144,0.211-0.295,0.286-0.49c-0.118-0.101-0.025-0.244-0.102-0.388
		c-0.186-0.05-0.347-0.025-0.473,0.102c-0.084,0.085-0.228,0.161-0.312,0.245c-0.422,0.339-0.818,0.668-1.239,1.006
		c-0.313,0.245-0.658,0.389-1.046,0.491c-0.051,0.017-0.136,0.017-0.194,0.009c-0.313-0.008-0.667,0.026-0.987-0.007
		c-0.203-0.017-0.313-0.093-0.372-0.27c0-0.084-0.051-0.152-0.075-0.228c-0.01-0.026-0.026-0.076-0.043-0.127
		c-0.152-0.203-0.237-0.455-0.339-0.675c-0.025-0.076-0.067-0.202-0.067-0.287c0.024-0.177-0.051-0.32-0.179-0.446
		c-0.05-0.068-0.126-0.126-0.211-0.211c-0.152-0.118-0.313-0.092-0.489-0.033c0,0-0.018,0.034-0.009,0.059
		c-0.024,0.262-0.024,0.516,0.035,0.777c0.085,0.422,0.145,0.852,0.204,1.283c0.017,0.051,0.051,0.151,0,0.253
		c-0.067,0.051-0.202,0.068-0.286,0.068c-0.313,0.076-0.565,0.161-0.835,0.279c-0.144,0.076-0.321,0.136-0.541,0.153
		c-0.109,0.009-0.235,0.051-0.371,0.068c-0.235,0.051-0.473,0.102-0.7,0.178c-0.312,0.077-0.649,0.162-0.953,0.263
		c-0.295,0.126-0.565,0.246-0.817,0.499c-0.127,0.127-0.271,0.288-0.422,0.423c0.009,0.025-0.009,0.059-0.025,0.093
		c-0.042,0.042,0,0.084,0.06,0.092c0.101-0.033,0.236-0.05,0.338-0.084c0.126-0.042,0.295-0.127,0.446-0.178
		c0.228-0.161,0.456-0.153,0.726-0.187c0.144,0.008,0.346,0.025,0.48,0.008c0.363-0.093,0.718-0.127,1.114-0.12
		c0.085,0,0.203,0.017,0.296,0.042c0.194-0.008,0.413-0.026,0.608-0.034c0.244-0.026,0.531-0.01,0.834-0.026
		c0.119,0.017,0.246,0.059,0.381,0.042c0.033,0.186,0.06,0.262,0.076,0.396c0.06,0.262,0.136,0.574,0.179,0.869
		c0.068,0.624,0.246,1.24,0.34,1.856c0.094,0.362,0.195,0.75,0.28,1.088c0.048,0.385,0.115,0.778,0.204,1.168
		c-0.037,0.026-0.073,0.061-0.109,0.095c-0.034,0.05-0.018,0.132-0.038,0.205c0.004,0.06-0.003,0.156-0.023,0.228
		c-0.304,1.033-0.87,2.09-1.72,2.756c-0.149,0.115-0.299,0.23-0.438,0.31c-0.046,0.027-0.119,0.006-0.188,0.046
		c-0.059-0.212-0.138-0.352-0.184-0.541c-0.096-0.222-0.038-0.5-0.146-0.745c-0.135-0.292-0.332-0.64-0.561-0.879
		c-0.089-0.103-0.178-0.206-0.28-0.332c-0.197-0.349-0.436-0.551-0.769-0.761c-0.396-0.266-0.884-0.204-1.337-0.192
		c-0.357,0.019-0.682-0.012-0.98,0.218c-0.08,0.076-0.159,0.152-0.252,0.205c-0.196,0.142-0.171,0.403-0.316,0.578
		c0,0-0.011,0.037,0.003,0.06c0.045,0.404,0.044,0.834,0.185,1.245c0.203,0.683,0.569,1.273,1.199,1.683
		c0.186,0.109,0.395,0.206,0.602,0.303c0.49,0.213,1.01,0.318,1.549,0.349c0.192,0.015,0.384,0.028,0.563,0.019
		c0.016,0.083,0.042,0.129,0.045,0.189c-0.027,0.168-0.03,0.324,0.015,0.513c0.014,0.023,0.004,0.06,0.004,0.06
		c-0.008,0.311-0.065,0.589-0.146,0.88c-0.04,0.146-0.058,0.278-0.134,0.414c-0.083,0.231-0.227,0.466-0.323,0.674
		c-0.167,0.463-0.509,0.779-0.824,1.143c-0.09,0.113-0.22,0.155-0.389,0.128c-0.145-0.04-0.313-0.067-0.459-0.107
		c-0.133-0.017-0.255-0.07-0.32-0.186c-0.231-0.299-0.438-0.611-0.646-0.922c-0.194-0.29-0.342-0.604-0.302-0.965
		c-0.003-0.06-0.006-0.119-0.02-0.143c-0.114-0.363-0.123-0.758-0.215-1.136c-0.091-0.378-0.219-0.765-0.287-1.156
		c-0.114-0.579-0.288-1.156-0.448-1.709c-0.085-0.259-0.111-0.521-0.124-0.759c0.004-0.155,0.067-0.314,0.022-0.503
		c0.076-0.135,0.069-0.255,0.051-0.397c-0.003-0.059,0.017-0.132,0.036-0.205c0.051-0.182,0.064-0.374-0.064-0.546
		c-0.287-0.021-0.536,0.028-0.781,0.136c-0.152,0.057-0.255,0.145-0.308,0.268c-0.174,0.344-0.35,0.628-0.5,0.959
		c-0.097,0.208-0.23,0.406-0.277,0.647c-0.034,0.265-0.091,0.542-0.138,0.784c-0.061,0.218-0.074,0.41-0.052,0.612
		c0.035,0.656,0.105,1.322,0.235,1.984c0.095,0.437,0.226,0.884,0.403,1.306c0.214,0.431,0.474,0.835,0.757,1.227
		c0.234,0.358,0.527,0.713,0.875,0.946c0.681,0.443,1.656,0.595,2.457,0.6c0.395-0.008,0.861,0.003,1.223-0.171
		c0.361-0.175,0.498-0.528,0.685-0.849c0.13-0.258,0.187-0.537,0.317-0.794c0.119-0.221,0.15-0.546,0.184-0.811
		c0.028-0.384,0.271-0.768,0.226-1.171c-0.038-0.285-0.077-0.569-0.08-0.844c-0.02-0.143-0.016-0.298,0.088-0.387
		c0.149-0.116,0.272-0.277,0.461-0.323c0.435-0.154,0.692-0.455,0.985-0.805c0.326-0.399,0.539-0.889,0.878-1.265
		c0.123-0.143,0.299-0.543,0.44-0.971c0.09,0.327,0.18,0.654,0.27,0.981c0.067,0.202,0.11,0.414,0.178,0.616
		c0.051,0.152,0.085,0.253,0.111,0.414c0.084,0.253,0.16,0.565,0.245,0.818c0.084,0.253,0.169,0.506,0.245,0.734
		c0.052,0.152,0.094,0.278,0.128,0.38c0.076,0.228,0.178,0.446,0.279,0.666c0.06,0.093,0.076,0.144,0.11,0.245
		c0.075,0.144,0.152,0.287,0.236,0.456c0.145,0.346,0.322,0.708,0.593,1.012c0.397,0.514,0.896,0.741,1.512,0.647
		c0.388-0.018,0.742-0.136,1.071-0.247c0.126-0.042,0.194-0.092,0.295-0.211c0.025-0.008,0.034-0.067,0.085-0.084
		c0.16-0.11,0.27-0.287,0.336-0.507c0.253-0.507,0.623-0.912,0.774-1.469s0.219-1.115,0.31-1.68
		c0.134-1.199,0.462-2.321,0.806-3.478c0.193-0.684,0.252-1.435,0.394-2.103c0.025-0.178,0.06-0.33,0.093-0.481
		c0.025-0.093,0.025-0.178,0.017-0.287c-0.009-0.025,0.025-0.093,0.033-0.152c0.017-0.034,0.017-0.034,0.034-0.067
		C63.599,18.628,63.488,18.553,63.235,18.553z M51.631,25.492c-0.175,0.069-0.348-0.018-0.528-0.068
		c-0.317-0.126-0.615-0.326-0.879-0.575c-0.265-0.25-0.399-0.542-0.432-0.922c-0.003-0.06-0.006-0.119-0.032-0.165
		c-0.099-0.282-0.174-0.577-0.202-0.898c0.007-0.096-0.023-0.202-0.039-0.285c-0.017-0.083,0.017-0.132,0.063-0.158
		c0.046-0.026,0.096,0.006,0.155,0.003l0.014,0.023c0.178,0.206,0.423,0.313,0.645,0.432c0.37,0.22,0.61,0.697,0.83,1.033
		c0.169,0.242,0.369,0.649,0.302,0.964c0.003,0.06,0.029,0.106,0.056,0.153C51.699,25.178,51.658,25.324,51.631,25.492z"/>
	<path fill="#FFFFFF" d="M96.083,22.917c0.12-0.273,0.434-0.666,0.645-0.862c0.352-0.328,0.378-0.788,0.271-1.033
		c-0.39-0.092-0.513-0.149-0.665,0.144c-0.063,0.15-0.152,0.293-0.242,0.437c-0.515,0.673-1.037,1.372-1.526,2.052
		c-0.497,0.705-0.992,1.411-1.47,2.148c-0.452,0.633-0.851,1.279-1.282,1.945c-0.414,0.588-0.827,1.176-1.222,1.795
		c-0.076,0.092-0.173,0.151-0.249,0.243c-0.302,0.23-0.574,0.111-0.874-0.015c-0.247-0.114-0.225-0.328-0.279-0.56
		c-0.082-0.348,0.174-0.617,0.254-0.955c0.29-1.111,0.509-2.266,0.857-3.391c0.43-1.351,1.185-2.572,1.589-3.93
		c0.379-1.364,0.971-2.706,1.497-4.006c0.265-0.651,0.425-1.326,0.584-2.001c0.124-0.409,0.119-0.85,0.25-1.286
		c0.198-0.611,0.242-1.259,0.229-1.893c0.021-0.434-0.244-0.936-0.726-1.104c-0.637-0.206-1.268-0.328-1.915-0.371
		c-0.479-0.059-0.92-0.053-1.385,0.056c-1.02,0.252-1.854,0.767-2.623,1.463c-0.634,0.591-1.254,1.239-1.893,1.856
		c-0.301,0.34-0.627,0.675-0.906,1.047c-0.301,0.34-0.554,0.719-0.835,1.092c-0.069,0.065-0.102,0.195-0.27,0.211
		c0.019-0.079,0.005-0.136,0.023-0.214c0.081-0.228,0.138-0.461,0.219-0.689c0.213-0.553,0.052-1.03-0.221-1.506
		c-0.093-0.187-0.288-0.288-0.413-0.454c-0.179-0.29-0.445-0.435-0.743-0.451c-0.454-0.052-0.868-0.041-1.309-0.035
		c-0.052-0.012-0.11,0.001-0.148,0.047c-0.23,0.165-0.488,0.323-0.751,0.508c-0.693,0.494-1.325,1.084-1.862,1.726
		c-0.645,0.753-1.243,1.543-1.835,2.309c-0.071,0.065-0.115,0.137-0.186,0.203c-0.118-0.083-0.126-0.167-0.049-0.258
		c0.051-0.098,0.127-0.189,0.119-0.273c0.03-0.13,0.082-0.228,0.152-0.293c0.063-0.04,0.108-0.112,0.121-0.164
		c0.099-0.416,0.196-0.831,0.295-1.246c0.051-0.098,0.023-0.214,0.073-0.313c0.312-0.502,0.362-1.066,0.498-1.637
		c0.135-0.571,0.167-1.167,0.256-1.777c0.016-0.298,0.032-0.596-0.063-0.893c-0.083-0.348-0.299-0.591-0.554-0.789
		c-0.372-0.281-0.757-0.509-1.231-0.593c-0.344-0.054-0.688-0.108-1.037-0.136c-0.214-0.023-0.46-0.026-0.687,0.002
		c-0.38,0.103-0.793,0.224-1.134,0.39c-0.586,0.272-1.12,0.558-1.686,0.863c-0.791,0.444-1.482,1.048-2.135,1.717
		c-0.25,0.242-0.308,0.256-0.05,0.673c0.136,0.005,0.271,0.01,0.434,0.021c0.163,0.011,0.279-0.017,0.42-0.147
		c0.19-0.229,0.428-0.42,0.686-0.578c0.615-0.403,1.219-0.864,1.895-1.17c0.245-0.106,0.483-0.187,0.708-0.326
		c0.373-0.186,0.774-0.256,1.168-0.3c0.059-0.014,0.137,0.005,0.247,0.003c-0.031,0.13-0.036,0.266-0.087,0.364
		c-0.136,0.571-0.303,1.163-0.496,1.748c-0.348,1.234-0.715,2.437-1.056,3.645c-0.33,1.046-0.607,2.105-0.964,3.145
		c-0.307,0.833-0.542,1.71-0.719,2.573c-0.056,0.234-0.104,0.441-0.18,0.643c-0.362,1.066-0.569,2.169-0.743,3.252
		c-0.054,0.344-0.023,0.68,0.032,1.022c0.03,0.336,0.241,0.605,0.54,0.731c0.306,0.1,0.579,0.22,0.883,0.209
		c0.305-0.01,0.452-0.058,0.546-0.337c0.082-0.228,0.195-0.475,0.276-0.703c0.441-0.938,0.838-1.914,1.402-2.795
		c0.465-0.685,1.003-1.572,1.272-2.359c0.148-0.513,0.499-0.952,0.72-1.42c0.164-0.345,0.394-0.62,0.584-0.959
		c0.322-0.554,0.672-1.103,1.093-1.606c0.187-0.203,0.293-0.425,0.472-0.602c0.523-0.589,1.067-1.146,1.617-1.729
		c0.141-0.131,0.281-0.262,0.5-0.375c-0.043,0.182-0.073,0.312-0.098,0.416c-0.235,0.876-0.497,1.748-0.752,2.592
		c-0.247,0.929-0.494,1.858-0.762,2.754c-0.098,0.416-0.223,0.825-0.321,1.24c-0.129,0.546-0.252,1.065-0.381,1.611
		c-0.072,0.421-0.126,0.875-0.036,1.308c0.115,0.438,0.319,1.2,0.879,0.921c0.425-0.173,0.906-0.581,1.16-0.959
		c0.432-0.666,0.785-1.35,1.191-2.022c0.361-0.6,0.795-1.156,1.104-1.768c0.462-0.906,0.85-1.966,1.506-2.77
		c0.014-0.052,0.052-0.098,0.058-0.124c0.32-0.774,0.902-1.377,1.386-2.031c0.414-0.587,0.945-1.092,1.43-1.636
		c0.147-0.157,0.327-0.334,0.479-0.518c0.397-0.4,0.755-0.864,1.269-1.181c0.185-0.093,0.347-0.192,0.514-0.317
		c0.725-0.514,1.563-0.809,2.442-0.93c0.025,0.006,0.077,0.019,0.149,0.063c-0.067,0.286-0.058,0.59-0.157,0.895
		c-0.188,0.56-0.4,1.112-0.646,1.686c-0.2,0.501-0.459,1.016-0.687,1.511c-0.322,0.664-0.645,1.328-0.966,1.993
		c-0.511,1.113-1.04,2.195-1.428,3.365c-0.148,0.513-0.317,0.994-0.486,1.476c-0.436,1.378-0.847,2.762-1.132,4.202
		c-0.199,1.188-0.721,2.463-0.085,3.601c0.325,0.598,0.738,1.053,1.413,1.212c0.936,0.222,2.137,0.013,2.939-0.482
		c0.579-0.357,0.875-1.027,1.25-1.57c0.464-0.686,0.968-1.307,1.431-1.992c0.648-0.999,1.296-1.997,1.919-3.002
		C95.635,23.77,95.895,23.366,96.083,22.917z"/>
	<path fill="#FFFFFF" d="M102.181,28.851c0.211-0.182,0.526-0.233,0.699-0.503c0.015-0.023,0.066-0.053,0.103-0.062
		c0.285-0.198,0.577-0.36,0.9-0.471c0.074-0.016,0.141-0.07,0.206-0.123c-0.025-0.11-0.041-0.184-0.035-0.243
		c-0.136-0.086-0.26-0.039-0.363,0.022c-0.425,0.172-0.828,0.358-1.216,0.618c-0.065,0.053-0.152,0.092-0.242,0.132
		c-0.579,0.263-1.142,0.601-1.774,0.8c-0.088,0.039-0.198,0.063-0.3,0.125c-0.461,0.277-0.946,0.442-1.445,0.631
		c-0.162,0.055-0.31,0.088-0.479,0.106c-0.362,0.023-0.726,0.045-1.11,0.054c-0.267,0.02-0.525-0.019-0.771-0.081
		c-0.127-0.049-0.231-0.083-0.278-0.208c-0.137-0.183-0.224-0.395-0.235-0.625c-0.067-1.435,1.746-2.844,2.454-4.006
		c0.057-0.09,0.138-0.165,0.232-0.264c0.305-0.28,0.268-0.272,0.716-0.082c0.277,0.113,0.597,0.157,0.924,0.239
		c0.164,0.041,0.318,0.045,0.475,0.049c0.045,0.029,0.104,0.035,0.155,0.004c0.162-0.056,0.34-0.038,0.495-0.033
		c1.139-0.098,3.483-2.34,2.048-3.316c-0.045-0.028-0.076-0.08-0.121-0.108c-0.098-0.094-0.219-0.202-0.354-0.288
		c-0.22-0.203-0.486-0.279-0.764-0.391c-0.472-0.205-0.955-0.291-1.466-0.332c-0.06-0.006-0.156-0.004-0.229,0.013
		c-0.391,0.067-0.788,0.194-1.079,0.453c-0.015,0.021-0.051,0.03-0.064,0.053c-0.168,0.114-0.336,0.229-0.559,0.278
		c-0.05,0.03-0.139,0.069-0.204,0.123c-0.467,0.335-0.918,0.649-1.331,1.05c-0.312,0.34-0.609,0.657-0.928,0.96
		c-0.081,0.076-0.146,0.128-0.203,0.219c-0.252,0.345-0.54,0.7-0.815,1.031c-0.439,0.542-0.798,1.105-1.147,1.705
		c-0.294,0.51-0.46,1.069-0.438,1.683c0.029,0.399,0.162,0.737,0.318,1.089c0.031,0.051,0.039,0.088,0.062,0.102
		c0.281,0.305,0.511,0.641,0.834,0.879c0.902,0.669,2.067,0.429,3.095,0.356c1.339-0.065,2.336-0.886,3.542-1.29
		C101.734,29.105,101.945,28.923,102.181,28.851z M99.506,23.606c0.183-0.137,0.319-0.303,0.473-0.491
		c0.202-0.219,0.396-0.475,0.666-0.651c0.089-0.039,0.169-0.115,0.211-0.182c0.21-0.279,0.502-0.44,0.75-0.631
		c0.247-0.19,0.499-0.188,0.775-0.076c0.366,0.17,0.527,0.463,0.609,0.831c0.031,0.051,0.025,0.11-0.003,0.156
		c-0.041,0.164-0.06,0.342-0.033,0.548c-0.065,0.053-0.146,0.129-0.211,0.183c-0.116,0.084-0.196,0.159-0.246,0.286
		c0.002,0.096-0.086,0.135-0.137,0.166c-0.366,0.178-0.696,0.348-1.07,0.489c-0.265,0.117-0.53,0.137-0.827,0.106
		c-0.438-0.058-0.834-0.182-1.245-0.381C99.26,23.797,99.375,23.712,99.506,23.606z"/>
	<path fill="#FFFFFF" d="M120.384,46.204c0.176-0.035,0.36-0.145,0.476-0.302c-0.288-0.283-0.541-0.391-0.779-0.307
		c-0.649,0.166-1.276,0.315-1.908,0.502c-0.908,0.267-1.963,0.781-2.85,1.031c-0.573,0.175-5.58,2.172-6.733,2.427
		c-0.293,0.058-0.606,0.133-0.895,0.153c-0.154,0.019-0.342-0.005-0.466-0.078c-0.199-0.082-0.234-0.257-0.118-0.414
		c0.311-0.512,0.758-0.894,1.237-1.232c0.418-0.291,0.822-0.639,1.228-0.987c0.231-0.181,2.221-1.624,2.474-1.82
		c0.105-0.083,0.215-0.202,0.342-0.3c1.323-0.994,6.446-4.231,7.746-4.734c1.379-0.53,2.692-1.145,4.011-1.798
		c0.546-0.255,1.141-0.446,1.625-0.823c0.274-0.213,0.597-0.363,0.887-0.555c0.507-0.393,1.128-0.638,1.55-1.137
		c0.199-0.222,0.438-0.439,0.49-0.718c0.108-0.557-0.088-1.114-0.558-1.458c-0.694-0.543-1.496-0.968-2.407-1.139
		c-0.942-0.214-1.904-0.277-2.864-0.208c-1.168,0.063-2.361,0.179-3.556,0.296c-0.618,0.074-1.225,0.208-1.848,0.319
		c-1.262,0.203-2.506,0.427-3.752,0.651c-0.995,0.198-1.974,0.418-2.937,0.659c-0.706,0.177-1.386,0.434-2.06,0.654
		c-0.378,0.124-0.748,0.344-1.141,0.446c-0.632,0.187-1.199,0.458-1.766,0.73c-0.063,0.049-0.138,0.04-0.276,0.079
		c0.38-0.294,0.679-0.562,1.012-0.786c0.707-0.482,1.451-0.959,2.159-1.44c0.27-0.176,0.527-0.41,0.797-0.585
		c0.332-0.225,0.697-0.406,1.013-0.652c0.68-0.562,1.444-1.055,2.092-1.659c0.521-0.505,1.122-0.905,1.706-1.326
		c0.212-0.164,0.411-0.387,0.65-0.471c0.359-0.145,0.65-0.337,0.961-0.545c0.19-0.147,0.429-0.232,0.565-0.405
		c0.352-0.375,0.751-0.685,1.119-1.039c0.457-0.457,0.693-0.978,0.876-1.525c0.04-0.167,0.027-0.358,0.028-0.529
		c-0.021-0.288-0.159-0.552-0.296-0.817c-0.313-0.534-0.759-0.932-1.348-1.082c-0.736-0.207-1.476-0.375-2.215-0.544
		c-0.332-0.081-0.669-0.123-0.99-0.144c-0.321-0.021-0.624-0.022-0.908-0.038c-0.137,0.173-0.096,0.312-0.019,0.454
		c0.163,0.21,0.363,0.292,0.604,0.342c0.481,0.099,0.969,0.16,1.45,0.258c0.725,0.148,1.427,0.313,2.124,0.514
		c0.203,0.044,0.419,0.147,0.536,0.428c-0.375,0.258-0.733,0.536-1.142,0.751c-1.021,0.556-2.074,1.071-3.111,1.606
		c-0.222,0.105-0.461,0.189-0.688,0.332c-0.917,0.645-1.853,1.27-2.749,1.899c-0.29,0.192-0.581,0.384-0.849,0.559
		c-0.418,0.291-0.872,0.576-1.272,0.887c-0.481,0.339-0.911,0.742-1.388,1.043c-0.453,0.285-0.854,0.596-1.259,0.945
		c-0.642,0.566-1.299,1.111-1.979,1.673c-0.194,0.185-0.376,0.428-0.592,0.629c-0.321,0.283-0.643,0.566-0.945,0.87
		c-0.348,0.337-0.625,0.72-0.852,1.168c-0.223,0.41-0.094,0.749,0.337,0.955c0.092,0.03,0.141,0.093,0.189,0.157
		c0.227,0.162,0.173,0.44,0.277,0.663c0.085-0.065,0.186-0.109,0.313-0.208c0.056,0.159,0.096,0.297,0.168,0.478
		c0.122-0.061,0.277-0.079,0.382-0.161c0.321-0.283,0.657-0.545,1.062-0.723c0.306-0.171,0.612-0.342,0.931-0.454
		c0.36-0.146,0.754-0.248,1.114-0.393c0.785-0.339,1.653-0.439,2.389-0.841c0.144-0.078,0.307-0.17,0.446-0.21
		c0.949-0.299,1.884-0.619,2.874-0.78c0.212-0.03,0.447-0.077,0.681-0.124c0.707-0.177,1.452-0.35,2.176-0.507
		c0.51-0.126,1.031-0.193,1.547-0.357c0.08-0.028,0.17,0.003,0.246,0.012c0.096-0.007,0.171,0.003,0.229-0.009
		c0.293-0.058,0.569-0.138,0.861-0.196c0.352-0.07,0.719-0.119,1.104-0.147c0.442-0.04,0.901-0.058,1.344-0.097
		c0.479-0.035,0.927-0.112,1.391-0.168c0.347-0.032,0.729-0.061,1.081-0.131c0.777-0.131,1.567-0.203,2.353-0.104
		c0.037,0.005,0.075,0.01,0.134-0.002c0.489-0.11,0.946,0.043,1.416,0.083c0.074,0.01,0.125,0.073,0.248,0.145
		c-0.281,0.117-0.482,0.206-0.7,0.274c-0.817,0.297-1.667,0.551-2.483,0.849c-1.4,0.547-2.735,1.178-4.063,1.905
		c-0.308,0.17-0.651,0.336-0.996,0.502c-0.181,0.073-0.393,0.103-0.595,0.191c-1.106,0.489-2.106,1.333-3.121,1.986
		c-1.076,0.701-2.191,1.399-3.269,2.1c-1.182,0.784-2.506,1.474-3.406,2.578c-0.177,0.206-0.392,0.407-0.624,0.587
		c-0.068,0.086-0.185,0.11-0.27,0.176c-0.19,0.147-0.418,0.29-0.553,0.464c-0.482,0.509-0.804,1.097-1.055,1.731
		c-0.069,0.257-0.199,0.526-0.215,0.81c-0.085,0.979,0.281,1.842,1.328,2.145c0.387,0.105,0.771,0.211,1.159,0.317
		c0.386,0.104,0.766,0.114,1.154,0.049c0.446-0.077,0.898-0.191,1.324-0.252c1.316-0.177,9.147-3.626,9.792-3.754
		C119.692,46.403,120.027,46.312,120.384,46.204z"/>
	<path fill="#FFFFFF" d="M116.676,60.204c0.126,0.046,0.192,0.082,0.231,0.209c0.311,0.743,0.61,1.461,1.116,2.116
		c0.457,0.586,1.051,1.075,1.664,1.531c1.729,1.288,3.802,1.774,5.904,2.085c0.319,0.042,0.605,0.067,0.917,0.084
		c0.11-0.006,0.23-0.069,0.357-0.108c-0.128-0.239-0.197-0.47-0.311-0.658c-0.128-0.24-6.084-0.47-7.778-3.664
		c-0.167-0.368,0.047-0.768,0.209-1.151c0.396,0.019,0.793,0.038,1.154,0.039c0.06,0.011,0.085,0.003,0.137-0.013
		c0.355-0.024,0.736-0.056,1.086,0.089c0.034,0.018,0.118,0.02,0.177,0.03c0.515,0.039,1.036,0.104,1.576,0.136
		c0.084,0.002,0.194-0.004,0.27-0.027c0.341-0.075,0.698-0.184,1.027-0.199c0.788-0.072,1.531-0.382,2.287-0.555
		c1.589-0.371,3.168-0.683,4.55-1.549c0.679-0.429,1.398-0.814,1.972-1.407c0.739-0.781,0.476-1.649,0.196-2.569
		c-0.152-0.595-0.294-1.248-0.851-1.61c-0.249-0.176-0.548-0.336-0.822-0.504c-0.448-0.282-0.958-0.489-1.522-0.514
		c-0.684-0.044-1.384-0.055-2.087,0.02c-0.863,0.095-1.67,0.284-2.454,0.55c-0.376,0.142-0.742,0.225-1.106,0.308
		c-0.596,0.152-1.183,0.331-1.721,0.578c-0.487,0.231-0.967,0.488-1.43,0.712c-1.043,0.513-2.013,1.086-2.87,1.848
		c-0.855,0.762-1.506,1.655-1.681,2.825c0.015,0.051-0.003,0.084-0.038,0.15c-0.092-0.027-0.15-0.038-0.218-0.073
		c-0.601-0.236-1.194-0.446-1.761-0.749c-0.498-0.267-1.014-0.584-1.467-0.977c-0.447-0.366-0.687-0.88-0.586-1.468
		c0.188-1.033,0.684-1.882,1.562-2.482c0.077-0.023,0.12-0.064,0.163-0.105c0.798-0.772,1.658-1.34,2.723-1.69
		c1.186-0.415,2.359-0.771,3.622-0.932c1.397-0.174,2.796-0.347,4.209-0.469c0.213-0.036,0.432-0.047,0.651-0.058
		c0.557-0.002,1.141-0.012,1.731,0.004c0.109-0.005,0.245-0.019,0.347-0.049c0.424-0.073,0.842-0.172,1.253-0.102
		c0.059,0.01,0.116,0.021,0.168,0.005c0.333-0.101,0.609-0.018,0.883,0.15c0.058,0.011,0.126,0.046,0.184,0.056
		c0.52,0.149,1.065,0.291,1.559,0.447c0.185,0.056,0.333,0.179,0.466,0.249c0.242,0.15,0.536,0.201,0.731,0.477
		c0.007,0.024,0.083,0.002,0.116,0.02c0.035,0.019,0.1,0.054,0.142,0.097c0.246,0.26,0.51,0.487,0.817,0.673
		c0.199,0.106,0.32,0.32,0.478,0.469c0.107,0.079,0.207,0.132,0.317,0.127c0.144,0.012,0.222-0.096,0.241-0.213
		c0.021-0.118,0.041-0.236,0.094-0.336c0.063-0.158,0.025-0.286-0.098-0.416c-0.19-0.165-0.354-0.339-0.519-0.513
		c-0.469-0.442-0.912-0.895-1.339-1.379c-0.188-0.249-0.443-0.45-0.675-0.66c-0.84-0.748-1.82-1.315-2.894-1.632
		c-0.711-0.229-1.44-0.427-2.172-0.54c-0.118-0.02-0.209-0.048-0.302-0.075c-0.729-0.197-1.47-0.252-2.215-0.221
		c-0.642,0-1.318,0.065-1.962,0.149c-0.788,0.071-1.593,0.177-2.372,0.273c-0.398,0.065-0.79,0.155-1.188,0.221
		c-0.821,0.138-1.629,0.327-2.39,0.67c-0.949,0.455-1.836,1.03-2.713,1.632c-0.602,0.406-1.196,0.837-1.675,1.373
		c-0.792,0.882-1.226,1.934-1.494,3.074c-0.017,0.034-0.002,0.085-0.02,0.118c0.022,0.439,0.018,0.887,0.201,1.306
		c0.152,0.316,0.278,0.641,0.404,0.965c0.326,0.71,0.791,1.321,1.387,1.811c0.363,0.28,0.701,0.568,1.058,0.822
		C115.006,59.567,115.779,60.003,116.676,60.204z M120.398,58.685c0.13-0.123,0.269-0.221,0.406-0.318
		c0.456-0.334,0.904-0.693,1.403-0.983c0.42-0.268,0.913-0.389,1.35-0.605c1.208-0.617,2.461-1.081,3.74-1.553
		c0.733-0.251,1.491-0.509,2.247-0.682c0.815-0.164,4.124-0.75,3.351,1.02c-0.171,0.358-0.497,0.568-0.75,0.841
		c-0.459,0.418-0.94,0.76-1.489,1.065c-0.892,0.466-1.766,0.982-2.771,1.259c-0.229,0.069-0.474,0.088-0.712,0.133
		c-0.424,0.072-0.848,0.146-1.265,0.244c-0.672,0.176-1.342,0.267-2.034,0.282c-0.743,0.03-1.462,0.054-2.188,0.051
		c-0.549,0.027-1.114,0.003-1.671,0.005c-0.11,0.006-0.228-0.015-0.319-0.043c-0.009-0.025-0.016-0.051-0.023-0.076
		C119.914,59.11,120.123,58.88,120.398,58.685z"/>
	<path fill="#FFFFFF" d="M138.841,71.082c-0.095-0.447-0.11-0.901-0.178-1.351c-0.077-0.823-0.097-1.626-0.198-2.421
		c-0.146-1.005-0.346-2.005-0.516-2.981c-0.064-0.396-0.156-0.816-0.247-1.21c-0.017-0.187-0.063-0.396-0.288-0.51
		c-0.049,0.059-0.097,0.116-0.119,0.172c-0.202,0.421-0.32,0.888-0.302,1.368c0.004,0.321,0.087,0.636,0.115,0.955
		c0.034,0.667,0.041,1.31,0.047,1.952c0,0.295-0.025,0.592-0.025,0.887c-0.647-0.048-1.293-0.067-1.914-0.117
		c-0.783-0.063-1.559-0.044-2.332,0c-1.09,0.102-2.155,0.173-3.247,0.247c-0.455,0.016-0.909,0.03-1.387,0.075
		c-0.771,0.071-1.563,0.197-2.332,0.296c-0.449,0.067-0.869,0.16-1.292,0.227c-0.554,0.104-1.08,0.207-1.611,0.256
		c-0.636,0.086-1.278,0.092-1.915,0.15c-0.479,0.045-0.952,0.142-1.432,0.186c-0.74,0.096-1.485,0.165-2.254,0.263
		c-0.793,0.126-1.556,0.277-2.345,0.431c-0.395,0.091-0.723,0.309-0.843,0.749c0.118,0.123,0.261,0.217,0.329,0.371
		c0.065,0.128,0.03,0.319,0.021,0.508c0.048-0.058,0.102-0.063,0.125-0.092c0.094-0.143,0.198-0.18,0.345-0.032
		c0.061,0.074,0.196,0.089,0.331,0.104c0.083,0.02,0.191,0.036,0.274,0.055c0.107,0.017,0.218,0.033,0.324,0.024
		c0.081,0.019,0.188,0.009,0.294-0.001c0.297,0.026,0.621,0.05,0.945,0.073c0.215,0.007,0.433,0.04,0.647,0.048
		c0.321-0.003,0.641-0.033,0.985-0.065c0.321-0.002,0.644-0.005,0.964-0.008c0.189,0.009,0.375-0.008,0.564,0.001
		c0.238-0.021,0.501-0.073,0.722-0.013c0.469,0.145,0.942,0.047,1.4,0.058c0.671,0.019,1.319,0.066,1.976,0.22
		c0.136,0.015,0.298,0.026,0.455-0.016c0.476-0.07,0.928-0.112,1.413-0.077c0.133-0.012,0.242,0.005,0.372-0.034
		c0.343-0.059,0.706-0.199,1.089-0.101c0.03,0.024,0.054-0.005,0.08-0.008c0.266-0.023,0.5-0.1,0.742-0.096
		c0.936-0.032,1.854-0.251,2.749-0.415c0.527-0.102,1.052-0.23,1.577-0.333c0.184-0.044,0.368-0.087,0.551-0.131
		c0.476-0.071,0.955-0.115,1.426-0.239c0.446-0.095,0.889-0.243,1.331-0.392c0.312-0.108,0.618-0.271,1.004-0.44
		c0.044,0.184,0.057,0.316,0.098,0.473c0.031,0.346,0.093,0.715,0.152,1.059c0.058,0.343,0.17,0.681,0.229,1.023
		c0.104,0.555,0.26,1.075,0.256,1.612c0.022,0.238,0.144,0.389,0.363,0.449c0.055,0.021,0.138,0.04,0.193,0.062
		c0.072,0.208,0.121,0.444,0.35,0.585c0.043-0.112,0.032-0.218,0.108-0.278c0.119-0.145,0.132-0.307,0.141-0.495
		C139.109,73.121,139.017,72.111,138.841,71.082z"/>
</g>
<g>
	<path fill="#FFFFFF" d="M22.936,99.458l1.793-1.494l-0.845-2.655l-2.327-0.183l-0.334-1.051l7.999,0.62l0.215,0.676l-6.167,5.137
		L22.936,99.458z M24.988,95.396l0.591,1.857l1.993-1.657L24.988,95.396z"/>
	<path fill="#FFFFFF" d="M23.605,101.047l6.459-2.58l0.38,0.952l-6.459,2.58L23.605,101.047z"/>
	<path fill="#FFFFFF" d="M24.285,102.731l6.386-2.758l0.407,0.941l-6.386,2.758L24.285,102.731z"/>
	<path fill="#FFFFFF" d="M29.879,113.346l1.383-1.881l-1.457-2.374l-2.303,0.379l-0.576-0.939l7.915-1.314l0.371,0.604l-4.757,6.465
		L29.879,113.346z M30.899,108.911l1.019,1.661l1.538-2.086L30.899,108.911z"/>
	<path fill="#FFFFFF" d="M36.895,115.203c-0.071,0.328-0.194,0.635-0.371,0.918c-0.177,0.284-0.405,0.534-0.685,0.75l-2.09,1.613
		l-0.626-0.813l2.09-1.613c0.176-0.136,0.321-0.292,0.436-0.471c0.114-0.178,0.19-0.361,0.229-0.549
		c0.039-0.188,0.042-0.372,0.01-0.554c-0.031-0.181-0.104-0.345-0.22-0.494c-0.115-0.148-0.256-0.263-0.425-0.341
		c-0.169-0.079-0.349-0.123-0.541-0.134s-0.388,0.018-0.589,0.083s-0.39,0.166-0.566,0.302l-0.005-0.007l-2.097,1.618l-0.626-0.812
		l4.032-3.111l0.626,0.812l-0.216,0.167c0.149,0.035,0.302,0.094,0.458,0.175c0.305,0.153,0.559,0.36,0.761,0.622
		c0.198,0.257,0.333,0.553,0.404,0.887C36.948,114.568,36.952,114.886,36.895,115.203z"/>
	<path fill="#FFFFFF" d="M34.289,119.061l3.877-3.406l0.677,0.771l-3.877,3.406L34.289,119.061z M39.109,114.825l0.677,0.771
		l-0.809,0.711l-0.677-0.771L39.109,114.825z"/>
	<path fill="#FFFFFF" d="M43.401,121.633c0.014,0.571-0.175,1.063-0.567,1.477l-2.231,2.348l-0.743-0.706l2.231-2.348
		c0.098-0.104,0.172-0.22,0.221-0.351c0.049-0.13,0.072-0.262,0.068-0.395s-0.033-0.263-0.088-0.391
		c-0.056-0.127-0.135-0.24-0.238-0.338c-0.095-0.091-0.2-0.158-0.313-0.204c-0.114-0.045-0.23-0.071-0.35-0.079
		c-0.119-0.007-0.237,0.008-0.353,0.043c-0.116,0.035-0.224,0.088-0.322,0.159c-0.016,0.024-0.035,0.049-0.059,0.074
		c-0.023,0.024-0.045,0.047-0.065,0.067l-2.231,2.348l-0.743-0.706l2.231-2.348l0.006-0.006l-0.019-0.019
		c0.02-0.021,0.041-0.041,0.065-0.062c0.023-0.021,0.045-0.042,0.065-0.063c0.066-0.103,0.113-0.212,0.143-0.33
		c0.029-0.117,0.038-0.235,0.024-0.354c-0.013-0.119-0.047-0.234-0.103-0.346s-0.128-0.21-0.219-0.296
		c-0.095-0.091-0.202-0.159-0.322-0.207c-0.12-0.047-0.242-0.072-0.365-0.075s-0.244,0.016-0.364,0.055
		c-0.12,0.039-0.231,0.101-0.334,0.184l-2.302,2.422l-0.743-0.706l2.219-2.335l-0.006-0.006c0.02-0.021,0.039-0.042,0.059-0.063
		s0.042-0.039,0.065-0.056l1.218-1.282l0.744,0.706l-0.1,0.105c0.353,0.084,0.665,0.255,0.938,0.515
		c0.413,0.392,0.626,0.874,0.641,1.446l0.003,0.108l0.121-0.003c0.282-0.007,0.549,0.038,0.801,0.137
		c0.252,0.099,0.478,0.242,0.676,0.43C43.172,120.578,43.386,121.061,43.401,121.633z"/>
	<path fill="#FFFFFF" d="M46.891,124.305c0.041,0.279,0.029,0.551-0.035,0.814c-0.064,0.265-0.18,0.509-0.346,0.733l-1.912,2.582
		l-0.824-0.61l0.28-0.378c-0.105,0.008-0.208,0.01-0.308,0.006c-0.101-0.003-0.203-0.016-0.308-0.036
		c-0.323-0.063-0.605-0.183-0.848-0.362c-0.179-0.132-0.328-0.289-0.449-0.471c-0.121-0.182-0.205-0.375-0.251-0.579
		c-0.05-0.229-0.053-0.453-0.008-0.671c0.044-0.219,0.138-0.424,0.281-0.616c0.119-0.16,0.241-0.284,0.366-0.372
		c0.125-0.089,0.25-0.152,0.372-0.193s0.242-0.061,0.358-0.06s0.22,0.011,0.313,0.03c0.206,0.046,0.402,0.126,0.588,0.239
		c0.186,0.112,0.366,0.233,0.54,0.362l0.103,0.076l0.103,0.076c0.11,0.081,0.224,0.16,0.341,0.236s0.218,0.124,0.302,0.145
		c0.035,0.011,0.061,0.013,0.081,0.006c0.008-0.001,0.021-0.009,0.039-0.024c0.018-0.015,0.042-0.043,0.073-0.084
		c0.068-0.112,0.114-0.232,0.135-0.362c0.021-0.129,0.02-0.256-0.005-0.381c-0.025-0.125-0.072-0.243-0.142-0.354
		c-0.07-0.112-0.159-0.209-0.269-0.29c-0.119-0.088-0.246-0.148-0.381-0.182c-0.135-0.032-0.271-0.039-0.406-0.019
		c-0.135,0.021-0.264,0.064-0.386,0.134s-0.226,0.161-0.31,0.275l-0.824-0.61c0.166-0.224,0.366-0.405,0.6-0.544
		s0.49-0.229,0.769-0.271c0.279-0.042,0.549-0.029,0.812,0.037c0.263,0.067,0.508,0.186,0.737,0.354
		c0.224,0.166,0.406,0.365,0.547,0.597S46.849,124.026,46.891,124.305z M44.194,126.381c0.106-0.028,0.213-0.067,0.322-0.118
		c0.108-0.051,0.217-0.117,0.328-0.198c-0.097-0.051-0.191-0.108-0.282-0.172c-0.091-0.064-0.18-0.128-0.267-0.192l-0.103-0.076
		l-0.103-0.076c-0.119-0.089-0.244-0.176-0.375-0.263c-0.131-0.086-0.249-0.14-0.354-0.16c-0.042-0.011-0.092-0.01-0.15,0
		c-0.057,0.011-0.132,0.078-0.223,0.202c-0.058,0.077-0.093,0.158-0.104,0.241c-0.012,0.083-0.006,0.166,0.019,0.248
		s0.063,0.158,0.117,0.229c0.053,0.071,0.114,0.133,0.183,0.184c0.041,0.03,0.092,0.062,0.154,0.093
		c0.062,0.032,0.133,0.058,0.213,0.078c0.08,0.021,0.173,0.031,0.279,0.032C43.953,126.433,44.069,126.416,44.194,126.381z"/>
	<path fill="#FFFFFF" d="M45.331,128.841l3.773-5.844l0.861,0.556l-3.772,5.844L45.331,128.841z"/>
	<path fill="#FFFFFF" d="M51.15,129c0.071,0.105,0.126,0.212,0.163,0.321c0.037,0.108,0.06,0.221,0.067,0.336
		c0.014,0.256-0.05,0.51-0.191,0.764c-0.134,0.239-0.306,0.425-0.518,0.558c-0.211,0.134-0.447,0.212-0.709,0.236
		c-0.432,0.025-0.892-0.098-1.379-0.369c-0.239-0.134-0.443-0.306-0.611-0.518c-0.169-0.212-0.292-0.453-0.369-0.725
		c-0.156-0.551-0.095-1.074,0.183-1.571l0.896,0.5c-0.069,0.124-0.112,0.255-0.127,0.394c-0.016,0.139-0.005,0.271,0.031,0.399
		s0.098,0.246,0.183,0.356c0.086,0.109,0.19,0.199,0.315,0.269c0.303,0.169,0.572,0.248,0.808,0.235
		c0.174-0.007,0.308-0.096,0.402-0.265c0.033-0.06,0.053-0.115,0.059-0.167c0.007-0.052-0.009-0.109-0.045-0.173
		c-0.037-0.063-0.099-0.133-0.186-0.211s-0.207-0.173-0.36-0.284c-0.027-0.021-0.054-0.041-0.079-0.06
		c-0.026-0.018-0.052-0.039-0.076-0.066c-0.118-0.092-0.254-0.205-0.407-0.34c-0.153-0.134-0.289-0.287-0.409-0.458
		c-0.072-0.105-0.13-0.212-0.175-0.318s-0.078-0.211-0.099-0.314c-0.048-0.287-0.004-0.554,0.132-0.797
		c0.125-0.224,0.285-0.405,0.48-0.545c0.185-0.132,0.401-0.216,0.65-0.253c0.431-0.06,0.888,0.046,1.37,0.314
		c0.497,0.278,0.824,0.692,0.98,1.242c0.076,0.271,0.1,0.54,0.068,0.807s-0.115,0.521-0.251,0.766l-0.896-0.5
		c0.069-0.125,0.111-0.256,0.127-0.395c0.016-0.138,0.005-0.271-0.031-0.399s-0.098-0.246-0.183-0.356
		c-0.086-0.109-0.19-0.199-0.315-0.269c-0.283-0.158-0.525-0.222-0.726-0.189c-0.054,0.003-0.114,0.021-0.183,0.055
		c-0.067,0.034-0.134,0.108-0.197,0.223c-0.011,0.02-0.019,0.053-0.021,0.1c-0.004,0.048,0.034,0.129,0.113,0.245
		c0.073,0.112,0.169,0.22,0.285,0.32c0.116,0.102,0.221,0.187,0.312,0.258l0.145,0.109c0.126,0.09,0.262,0.195,0.406,0.315
		S51.051,128.84,51.15,129z"/>
	<path fill="#FFFFFF" d="M60.618,131.143c0.122,0.313,0.188,0.636,0.197,0.97c0.009,0.335-0.044,0.669-0.158,1.003l-0.854,2.498
		l-0.971-0.331l0.854-2.499c0.071-0.21,0.106-0.421,0.104-0.633c-0.003-0.211-0.04-0.406-0.112-0.584
		c-0.071-0.179-0.17-0.334-0.296-0.468c-0.126-0.133-0.278-0.23-0.456-0.291s-0.358-0.077-0.543-0.05
		c-0.184,0.027-0.358,0.09-0.524,0.187c-0.165,0.097-0.314,0.229-0.446,0.394c-0.132,0.166-0.233,0.354-0.305,0.564l-0.009-0.003
		l-0.856,2.506l-0.971-0.331l1.647-4.819l0.971,0.332l-0.089,0.259c0.145-0.054,0.305-0.089,0.479-0.107
		c0.339-0.041,0.664-0.008,0.978,0.1c0.307,0.104,0.582,0.277,0.825,0.517C60.313,130.583,60.491,130.846,60.618,131.143z"/>
	<path fill="#FFFFFF" d="M65.427,135.178c-0.279,0.455-0.646,0.797-1.1,1.027c-0.24,0.124-0.49,0.2-0.749,0.229
		s-0.516,0.012-0.771-0.049c-0.311-0.075-0.601-0.218-0.872-0.43c-0.127-0.106-0.24-0.221-0.34-0.342
		c-0.1-0.12-0.188-0.254-0.264-0.401c-0.151-0.294-0.247-0.609-0.287-0.943c-0.039-0.335-0.019-0.671,0.063-1.009
		c0.082-0.338,0.216-0.647,0.403-0.928c0.188-0.279,0.42-0.519,0.695-0.716c0.267-0.182,0.558-0.308,0.874-0.378
		c0.333-0.072,0.655-0.071,0.966,0.004c0.305,0.073,0.589,0.206,0.853,0.398c0.258,0.197,0.462,0.431,0.614,0.701
		c0.166,0.28,0.272,0.584,0.316,0.911s0.026,0.657-0.054,0.989l-0.12,0.499l-3.605-0.868c-0.008,0.18,0.011,0.353,0.056,0.519
		s0.111,0.316,0.198,0.452c0.088,0.136,0.195,0.251,0.321,0.346c0.127,0.095,0.268,0.161,0.423,0.198
		c0.232,0.056,0.464,0.043,0.694-0.039c0.231-0.082,0.433-0.226,0.605-0.431L65.427,135.178z M63.806,132.239
		c-0.266-0.064-0.529-0.034-0.791,0.091c-0.262,0.124-0.479,0.313-0.65,0.563l2.451,0.591c-0.021-0.305-0.121-0.57-0.3-0.798
		C64.336,132.459,64.099,132.31,63.806,132.239z"/>
	<path fill="#FFFFFF" d="M70.649,136.021c-0.24,0.477-0.576,0.849-1.009,1.116c-0.229,0.145-0.472,0.241-0.728,0.291
		c-0.256,0.051-0.513,0.056-0.771,0.017c-0.315-0.048-0.617-0.166-0.905-0.354c-0.136-0.096-0.258-0.199-0.368-0.312
		c-0.109-0.111-0.208-0.237-0.296-0.378c-0.177-0.28-0.299-0.586-0.366-0.916s-0.075-0.667-0.023-1.01
		c0.053-0.344,0.161-0.663,0.324-0.958s0.374-0.553,0.632-0.772c0.25-0.204,0.529-0.354,0.838-0.451
		c0.327-0.1,0.647-0.126,0.963-0.078c0.31,0.048,0.604,0.156,0.884,0.325c0.273,0.175,0.497,0.391,0.671,0.647
		c0.19,0.266,0.321,0.559,0.393,0.881c0.072,0.322,0.082,0.652,0.03,0.99l-0.077,0.507l-3.666-0.56
		c0.007,0.18,0.04,0.351,0.099,0.512c0.06,0.162,0.138,0.307,0.236,0.434c0.099,0.128,0.216,0.233,0.35,0.317
		s0.28,0.138,0.438,0.162c0.236,0.036,0.467,0.003,0.689-0.098c0.223-0.102,0.411-0.262,0.566-0.48L70.649,136.021z M68.785,133.229
		c-0.271-0.041-0.53,0.012-0.78,0.158s-0.45,0.352-0.601,0.617l2.492,0.38c-0.046-0.301-0.169-0.557-0.366-0.769
		C69.332,133.404,69.083,133.275,68.785,133.229z"/>
	<path fill="#FFFFFF" d="M75.9,138.264l-1.022-0.077l0.035-0.469c-0.138,0.087-0.281,0.162-0.429,0.225
		c-0.322,0.119-0.646,0.166-0.97,0.142c-0.318-0.023-0.628-0.118-0.93-0.283c-0.137-0.085-0.264-0.179-0.382-0.282
		c-0.118-0.103-0.229-0.221-0.333-0.354c-0.197-0.267-0.343-0.562-0.436-0.886c-0.093-0.323-0.126-0.659-0.1-1.006
		c0.026-0.352,0.109-0.68,0.249-0.983s0.327-0.575,0.563-0.814c0.233-0.223,0.501-0.394,0.801-0.515
		c0.318-0.124,0.639-0.175,0.963-0.15c0.329,0.024,0.642,0.122,0.938,0.293c0.132,0.073,0.262,0.166,0.391,0.278l0.16-2.131
		l1.022,0.077l-0.322,4.295l-0.001,0.008L75.9,138.264z M73.591,137.062c0.188,0.015,0.367-0.015,0.538-0.088
		s0.325-0.177,0.461-0.313s0.246-0.299,0.332-0.489s0.137-0.396,0.153-0.618l0.001-0.009c0.017-0.222-0.004-0.433-0.06-0.634
		c-0.057-0.202-0.142-0.38-0.256-0.534s-0.25-0.279-0.408-0.377c-0.159-0.098-0.332-0.153-0.52-0.168
		c-0.188-0.014-0.365,0.016-0.533,0.089s-0.32,0.177-0.456,0.313s-0.247,0.3-0.333,0.493c-0.086,0.194-0.137,0.401-0.153,0.623
		s0.003,0.433,0.06,0.635c0.056,0.201,0.142,0.379,0.255,0.533c0.114,0.154,0.249,0.279,0.405,0.377
		C73.232,136.992,73.403,137.048,73.591,137.062z"/>
	<path fill="#FFFFFF" d="M84.393,133.664c0.205,0.194,0.363,0.415,0.476,0.662c0.111,0.248,0.172,0.512,0.179,0.791l0.086,3.212
		l-1.024,0.027l-0.013-0.47c-0.078,0.07-0.157,0.135-0.238,0.194c-0.081,0.059-0.17,0.112-0.266,0.16
		c-0.292,0.15-0.589,0.229-0.891,0.238c-0.223,0.006-0.437-0.025-0.644-0.094c-0.207-0.069-0.393-0.17-0.556-0.302
		c-0.181-0.149-0.32-0.323-0.42-0.523c-0.1-0.199-0.152-0.419-0.158-0.658c-0.006-0.199,0.014-0.372,0.059-0.519
		c0.044-0.146,0.103-0.273,0.174-0.381c0.07-0.107,0.152-0.196,0.244-0.268c0.093-0.07,0.181-0.127,0.266-0.169
		c0.19-0.091,0.395-0.148,0.61-0.175c0.216-0.025,0.432-0.041,0.648-0.047l0.128-0.004l0.128-0.003
		c0.137-0.004,0.275-0.012,0.414-0.024c0.14-0.012,0.249-0.036,0.327-0.072c0.034-0.013,0.057-0.027,0.067-0.045
		c0.006-0.006,0.011-0.021,0.016-0.043c0.006-0.022,0.008-0.061,0.006-0.111c-0.015-0.131-0.054-0.254-0.116-0.369
		c-0.063-0.114-0.143-0.214-0.239-0.297c-0.096-0.083-0.206-0.146-0.33-0.192c-0.124-0.045-0.254-0.065-0.391-0.062
		c-0.147,0.004-0.285,0.034-0.412,0.092c-0.126,0.058-0.237,0.137-0.331,0.235c-0.095,0.1-0.168,0.214-0.222,0.344
		s-0.078,0.266-0.074,0.408l-1.025,0.027c-0.008-0.279,0.038-0.545,0.137-0.799c0.099-0.253,0.245-0.482,0.439-0.687
		c0.193-0.205,0.414-0.362,0.662-0.471c0.248-0.109,0.515-0.168,0.799-0.176c0.279-0.008,0.545,0.037,0.799,0.133
		C83.959,133.325,84.188,133.47,84.393,133.664z M83.549,136.961c0.066-0.088,0.127-0.185,0.181-0.292
		c0.054-0.106,0.1-0.226,0.136-0.358c-0.107,0.021-0.217,0.033-0.328,0.039s-0.221,0.01-0.329,0.013l-0.128,0.004l-0.128,0.003
		c-0.148,0.005-0.3,0.013-0.457,0.025c-0.156,0.013-0.282,0.043-0.378,0.092c-0.039,0.018-0.078,0.049-0.117,0.093
		c-0.038,0.044-0.056,0.143-0.052,0.296c0.003,0.097,0.025,0.182,0.066,0.255c0.042,0.073,0.098,0.134,0.168,0.184
		c0.069,0.05,0.147,0.086,0.233,0.109s0.172,0.033,0.258,0.031c0.051-0.001,0.11-0.009,0.179-0.021
		c0.068-0.014,0.14-0.037,0.216-0.07s0.156-0.082,0.24-0.147C83.392,137.15,83.473,137.065,83.549,136.961z"/>
	<path fill="#FFFFFF" d="M92.589,130.379c0.232,0.16,0.421,0.353,0.566,0.578s0.243,0.476,0.293,0.75l-1.009,0.185
		c-0.025-0.141-0.076-0.269-0.152-0.385s-0.169-0.213-0.278-0.288s-0.232-0.128-0.368-0.159c-0.136-0.029-0.273-0.032-0.414-0.007
		c-0.14,0.026-0.268,0.077-0.384,0.153c-0.117,0.076-0.213,0.169-0.288,0.278c-0.076,0.109-0.129,0.231-0.159,0.368
		c-0.03,0.136-0.032,0.273-0.007,0.413l0.287,1.572l1.085-0.198l0.184,1.009l-1.084,0.198l0.491,2.69l-1.009,0.184l-0.963-5.271
		c-0.05-0.274-0.047-0.543,0.01-0.805c0.056-0.263,0.164-0.51,0.324-0.742c0.161-0.231,0.354-0.421,0.583-0.566
		s0.477-0.243,0.746-0.293C91.604,129.942,92.118,130.054,92.589,130.379z M92.427,131.867l1.009-0.184l0.094,0.513l-1.009,0.185
		L92.427,131.867z"/>
	<path fill="#FFFFFF" d="M96.027,136.523c-0.314,0.083-0.641,0.096-0.98,0.038c-0.156-0.035-0.308-0.083-0.452-0.142
		c-0.146-0.059-0.289-0.134-0.432-0.227c-0.273-0.187-0.507-0.418-0.7-0.694c-0.194-0.275-0.335-0.581-0.424-0.917
		c-0.09-0.342-0.119-0.679-0.086-1.012c0.032-0.333,0.121-0.65,0.265-0.954c0.148-0.286,0.345-0.536,0.589-0.748
		c0.26-0.222,0.55-0.374,0.869-0.459c0.313-0.083,0.639-0.092,0.974-0.027c0.317,0.063,0.611,0.183,0.882,0.359
		c0.274,0.192,0.508,0.425,0.701,0.698s0.335,0.58,0.425,0.922c0.089,0.336,0.117,0.672,0.085,1.007
		c-0.032,0.336-0.121,0.652-0.266,0.95c-0.078,0.15-0.166,0.287-0.264,0.409c-0.097,0.123-0.205,0.239-0.323,0.347
		C96.623,136.292,96.335,136.441,96.027,136.523z M94.938,132.4c-0.182,0.048-0.342,0.135-0.479,0.26s-0.249,0.273-0.333,0.445
		c-0.084,0.173-0.135,0.364-0.153,0.575c-0.018,0.211,0.002,0.424,0.059,0.639s0.145,0.408,0.264,0.58s0.258,0.313,0.416,0.421
		s0.328,0.183,0.51,0.223c0.182,0.041,0.363,0.037,0.545-0.011c0.182-0.049,0.341-0.135,0.476-0.259s0.245-0.272,0.329-0.444
		c0.084-0.173,0.135-0.363,0.153-0.571s0-0.42-0.057-0.635s-0.146-0.409-0.265-0.584c-0.12-0.175-0.259-0.316-0.417-0.425
		c-0.159-0.108-0.327-0.183-0.506-0.224S95.119,132.353,94.938,132.4z"/>
	<path fill="#FFFFFF" d="M100.701,130.058c0.257,0.118,0.476,0.275,0.657,0.473c0.183,0.196,0.321,0.426,0.418,0.688l-0.962,0.354
		c-0.049-0.134-0.121-0.251-0.217-0.353c-0.095-0.102-0.203-0.181-0.323-0.236c-0.121-0.055-0.251-0.086-0.39-0.093
		c-0.14-0.006-0.275,0.016-0.409,0.064c-0.134,0.05-0.251,0.122-0.353,0.217s-0.181,0.203-0.236,0.324
		c-0.056,0.12-0.086,0.25-0.093,0.389c-0.007,0.14,0.016,0.275,0.064,0.409l1.121,3.038l-0.962,0.355l-0.713-1.932l-0.008,0.003
		l-1.083-2.935l0.962-0.354l0.057,0.152c0.118-0.141,0.251-0.265,0.4-0.371c0.148-0.106,0.312-0.192,0.487-0.258
		C99.655,129.797,100.182,129.818,100.701,130.058z"/>
	<path fill="#FFFFFF" d="M106.862,130.383c0.075,0.528,0.013,1.025-0.189,1.493c-0.106,0.249-0.25,0.467-0.431,0.654
		s-0.39,0.339-0.624,0.454c-0.287,0.141-0.602,0.217-0.946,0.227c-0.165-0.001-0.325-0.017-0.479-0.045
		c-0.154-0.029-0.308-0.076-0.46-0.141c-0.305-0.13-0.579-0.311-0.823-0.543s-0.443-0.505-0.597-0.816s-0.247-0.636-0.281-0.971
		c-0.035-0.335-0.009-0.667,0.077-0.995c0.089-0.311,0.232-0.593,0.43-0.85c0.211-0.269,0.46-0.473,0.746-0.613
		c0.281-0.139,0.585-0.218,0.911-0.238c0.323-0.013,0.631,0.036,0.92,0.147c0.308,0.109,0.583,0.275,0.826,0.499
		s0.439,0.488,0.591,0.795l0.226,0.46l-3.328,1.636c0.108,0.144,0.233,0.265,0.374,0.364c0.141,0.099,0.288,0.172,0.441,0.221
		c0.153,0.048,0.31,0.068,0.468,0.061s0.309-0.047,0.452-0.117c0.215-0.105,0.384-0.264,0.509-0.475
		c0.126-0.21,0.188-0.449,0.19-0.717L106.862,130.383z M103.737,129.157c-0.245,0.121-0.429,0.313-0.551,0.575
		c-0.121,0.263-0.168,0.546-0.14,0.85l2.263-1.111c-0.21-0.221-0.457-0.361-0.74-0.422
		C104.285,128.988,104.009,129.024,103.737,129.157z"/>
	<path fill="#FFFFFF" d="M109.607,124.521l0.986,5.658l-0.539,0.348l-4.627-3.31l0.927-0.598l2.95,2.113l-0.639-3.604
		L109.607,124.521z"/>
	<path fill="#FFFFFF" d="M115.354,124.3c0.198,0.495,0.255,0.993,0.169,1.495c-0.044,0.267-0.132,0.513-0.264,0.737
		c-0.131,0.226-0.297,0.422-0.498,0.59c-0.245,0.204-0.533,0.353-0.865,0.444c-0.161,0.038-0.32,0.062-0.477,0.069
		s-0.316-0.001-0.479-0.028c-0.327-0.053-0.637-0.164-0.929-0.332c-0.292-0.167-0.55-0.385-0.772-0.651s-0.391-0.559-0.504-0.876
		s-0.167-0.646-0.161-0.985c0.013-0.322,0.085-0.631,0.217-0.927c0.142-0.311,0.334-0.568,0.579-0.773
		c0.24-0.2,0.517-0.35,0.829-0.447c0.311-0.089,0.621-0.114,0.929-0.074c0.324,0.033,0.631,0.129,0.92,0.288
		c0.289,0.16,0.544,0.371,0.763,0.633l0.329,0.394l-2.847,2.378c0.14,0.113,0.289,0.202,0.449,0.265
		c0.16,0.063,0.321,0.1,0.482,0.11c0.16,0.01,0.316-0.008,0.469-0.053c0.151-0.045,0.288-0.118,0.411-0.221
		c0.184-0.153,0.311-0.347,0.382-0.581c0.072-0.234,0.077-0.481,0.016-0.742L115.354,124.3z M112.026,123.85
		c-0.21,0.176-0.343,0.405-0.398,0.689s-0.034,0.57,0.065,0.858l1.935-1.616c-0.256-0.165-0.529-0.243-0.819-0.234
		C112.52,123.555,112.258,123.656,112.026,123.85z"/>
	<path fill="#FFFFFF" d="M116.207,119.227c0.282-0.009,0.549,0.034,0.799,0.13c0.251,0.095,0.479,0.238,0.682,0.43l-0.703,0.747
		c-0.104-0.098-0.221-0.171-0.352-0.22c-0.13-0.048-0.262-0.07-0.395-0.066s-0.263,0.034-0.391,0.09
		c-0.127,0.057-0.239,0.137-0.337,0.24s-0.171,0.221-0.22,0.352c-0.048,0.13-0.07,0.262-0.066,0.395s0.034,0.263,0.091,0.391
		c0.056,0.127,0.136,0.239,0.239,0.337l2.358,2.22l-0.703,0.747l-1.499-1.412l-0.006,0.007l-2.277-2.145l0.703-0.746l0.118,0.111
		c0.043-0.179,0.107-0.349,0.193-0.511c0.085-0.161,0.192-0.312,0.321-0.448C115.154,119.46,115.636,119.244,116.207,119.227z"/>
	<path fill="#FFFFFF" d="M121.524,111.933c0.331-0.055,0.661-0.054,0.992,0.003c0.33,0.058,0.647,0.177,0.951,0.357l2.269,1.35
		l-0.523,0.882l-2.27-1.351c-0.191-0.113-0.391-0.19-0.599-0.231c-0.207-0.04-0.406-0.044-0.595-0.011
		c-0.188,0.034-0.362,0.1-0.521,0.198c-0.157,0.098-0.284,0.228-0.381,0.39c-0.09,0.151-0.144,0.313-0.16,0.486s0,0.343,0.049,0.511
		c0.05,0.169,0.13,0.331,0.242,0.487c0.113,0.156,0.25,0.293,0.413,0.41l2.438,1.45l-0.524,0.881l-2.276-1.354l-0.005,0.008
		c-0.034-0.021-0.067-0.04-0.099-0.059c-0.032-0.02-0.063-0.042-0.095-0.066l-3.504-2.084l0.524-0.881l1.821,1.083
		c-0.018-0.137-0.019-0.293,0-0.468c0.029-0.34,0.128-0.649,0.294-0.929s0.391-0.513,0.676-0.701
		C120.92,112.106,121.214,111.986,121.524,111.933z"/>
	<path fill="#FFFFFF" d="M127.131,110.772c-0.134,0.296-0.33,0.557-0.589,0.783c-0.127,0.1-0.259,0.187-0.396,0.262
		c-0.138,0.076-0.287,0.14-0.448,0.191c-0.317,0.094-0.645,0.129-0.98,0.104c-0.336-0.023-0.662-0.107-0.979-0.251
		c-0.321-0.146-0.601-0.337-0.838-0.572s-0.428-0.505-0.572-0.808c-0.129-0.296-0.198-0.605-0.208-0.93
		c-0.008-0.341,0.057-0.662,0.192-0.963c0.135-0.296,0.332-0.554,0.595-0.772c0.249-0.206,0.527-0.358,0.835-0.456
		c0.322-0.092,0.651-0.126,0.984-0.104c0.334,0.023,0.661,0.107,0.983,0.253c0.316,0.144,0.595,0.334,0.834,0.57
		c0.24,0.237,0.43,0.506,0.568,0.807c0.067,0.155,0.118,0.31,0.151,0.463c0.034,0.152,0.056,0.31,0.064,0.47
		C127.328,110.164,127.263,110.481,127.131,110.772z M123.247,109.013c-0.077,0.171-0.111,0.35-0.102,0.535
		c0.01,0.187,0.055,0.366,0.135,0.54c0.081,0.175,0.197,0.335,0.35,0.482c0.152,0.146,0.329,0.267,0.532,0.357
		c0.202,0.092,0.407,0.146,0.616,0.162c0.208,0.017,0.404-0.003,0.588-0.057c0.185-0.055,0.35-0.139,0.495-0.254
		c0.146-0.115,0.258-0.259,0.336-0.43c0.077-0.172,0.11-0.349,0.1-0.532c-0.011-0.183-0.057-0.361-0.137-0.536
		c-0.081-0.174-0.196-0.334-0.346-0.479c-0.149-0.146-0.325-0.265-0.528-0.356c-0.202-0.092-0.408-0.146-0.619-0.164
		c-0.212-0.017-0.409,0.001-0.593,0.056c-0.185,0.054-0.349,0.138-0.493,0.25C123.436,108.699,123.324,108.842,123.247,109.013z"/>
	<path fill="#FFFFFF" d="M125.984,100.124c0.507-0.265,1.032-0.312,1.576-0.141l3.09,0.97l-0.308,0.979l-3.09-0.971
		c-0.136-0.042-0.273-0.057-0.411-0.044c-0.139,0.014-0.267,0.051-0.385,0.112s-0.222,0.146-0.312,0.252
		c-0.091,0.105-0.157,0.227-0.199,0.362c-0.039,0.125-0.055,0.249-0.045,0.371c0.01,0.123,0.037,0.239,0.083,0.349
		c0.046,0.11,0.11,0.209,0.193,0.298s0.178,0.162,0.285,0.22c0.028,0.003,0.06,0.01,0.092,0.02c0.032,0.011,0.063,0.02,0.09,0.028
		l3.09,0.97l-0.307,0.979l-3.091-0.97l-0.008-0.003l-0.008,0.024c-0.027-0.008-0.055-0.019-0.084-0.03
		c-0.029-0.013-0.058-0.022-0.084-0.031c-0.121-0.014-0.241-0.009-0.359,0.017c-0.119,0.026-0.229,0.07-0.329,0.135
		c-0.101,0.063-0.188,0.146-0.265,0.244c-0.075,0.099-0.132,0.207-0.17,0.327c-0.039,0.125-0.054,0.252-0.043,0.38
		c0.011,0.129,0.041,0.249,0.093,0.361c0.052,0.111,0.121,0.212,0.209,0.303c0.089,0.09,0.192,0.163,0.313,0.219l3.188,1.001
		l-0.307,0.978l-3.074-0.965l-0.002,0.009c-0.027-0.009-0.055-0.018-0.082-0.025c-0.027-0.009-0.054-0.021-0.079-0.034l-1.688-0.529
		l0.308-0.979l0.138,0.043c-0.08-0.354-0.063-0.709,0.049-1.068c0.171-0.543,0.51-0.947,1.017-1.212l0.097-0.051l-0.056-0.107
		c-0.131-0.249-0.208-0.51-0.23-0.779s0.007-0.535,0.089-0.796C125.139,100.793,125.478,100.389,125.984,100.124z"/>
	<path fill="#FFFFFF" d="M129.955,95.316c0.464,0.264,0.818,0.618,1.064,1.063c0.132,0.236,0.217,0.483,0.254,0.741
		s0.029,0.515-0.022,0.771c-0.064,0.313-0.197,0.608-0.399,0.887c-0.103,0.13-0.213,0.247-0.33,0.352
		c-0.117,0.104-0.248,0.196-0.393,0.277c-0.288,0.161-0.6,0.268-0.933,0.319c-0.333,0.051-0.67,0.041-1.011-0.028
		c-0.34-0.069-0.653-0.193-0.94-0.371c-0.286-0.178-0.532-0.401-0.739-0.671c-0.19-0.26-0.327-0.546-0.408-0.859
		c-0.083-0.331-0.093-0.652-0.029-0.966c0.063-0.307,0.186-0.596,0.369-0.866c0.188-0.264,0.415-0.477,0.68-0.637
		c0.274-0.177,0.575-0.293,0.9-0.349c0.325-0.055,0.655-0.049,0.99,0.02l0.502,0.104l-0.743,3.633
		c0.18,0.002,0.352-0.022,0.517-0.073c0.164-0.051,0.313-0.122,0.445-0.214c0.132-0.092,0.243-0.203,0.334-0.333
		c0.09-0.13,0.151-0.272,0.184-0.429c0.048-0.234,0.026-0.466-0.063-0.693s-0.24-0.425-0.45-0.59L129.955,95.316z M127.073,97.038
		c-0.055,0.268-0.016,0.53,0.118,0.787c0.133,0.257,0.328,0.468,0.586,0.63l0.505-2.469c-0.303,0.03-0.564,0.14-0.786,0.327
		S127.134,96.742,127.073,97.038z"/>
</g>
<path fill="#FFFFFF" d="M24.688,86.092c0,0-6.482-6.233-1.827-7.3c0,0,3.294-0.161,3.371,3.271c0,0,4.036-6.767,5.686-1.66
	C31.918,80.403,30.865,86.733,24.688,86.092z"/>
<path fill="#FFFFFF" d="M126.264,86.092c0,0-6.483-6.233-1.827-7.3c0,0,3.294-0.161,3.371,3.271c0,0,4.035-6.767,5.685-1.66
	C133.492,80.403,132.441,86.733,126.264,86.092z"/>
</svg>
